<svg xmlns="http://www.w3.org/2000/svg" xmlns:xlink="http://www.w3.org/1999/xlink" viewBox="0 0 257.51 208.62"><defs><style>.cls-1,.cls-11,.cls-54{fill:none;}.cls-2{fill:#492b1b;}.cls-3{fill:#b17f4a;}.cls-4{fill:#432918;}.cls-5{fill:#7b6a58;}.cls-6{fill:#fff;}.cls-7{fill:#634e42;}.cls-8{fill:#683c11;}.cls-9{fill:#1d1d1b;}.cls-10{fill:#ca9e67;}.cls-11{stroke:#1d1d1b;}.cls-11,.cls-54{stroke-miterlimit:10;}.cls-12{fill:#da8d51;}.cls-13{fill:#eab885;}.cls-14{fill:#383737;}.cls-15{fill:#7f4a42;}.cls-16{fill:#f8e4d7;}.cls-17{fill:#f9c49d;}.cls-18{fill:#e84a40;}.cls-19{fill:#7e4841;}.cls-20{fill:#7f4844;}.cls-21{fill:#b17f49;}.cls-22{fill:#fbd9c0;}.cls-23{fill:#f9d7b5;}.cls-24{fill:#4c2a15;}.cls-25{fill:#ef993b;}.cls-26{fill:#911a17;}.cls-27{fill:#a11f16;opacity:0.11;}.cls-28{fill:#211f21;}.cls-29{fill:#f5ba92;opacity:0.7;}.cls-30{fill:#534c53;}.cls-31{fill:#3a3639;}.cls-32{fill:#0c0b0e;}.cls-33{fill:#f9d8bd;}.cls-34{fill:#dcaf3f;}.cls-35{fill:#14a238;}.cls-36{fill:#984e98;}.cls-37{fill:#f9d84f;}.cls-38{fill:#fad5b5;}.cls-39{fill:#c99d66;}.cls-40{fill:#303031;}.cls-41{fill:#f8c7ae;}.cls-42{fill:#5e5f5f;}.cls-43{fill:#bbb;}.cls-44{fill:#acacac;}.cls-45{fill:#777;}.cls-46{fill:#e2e2e2;}.cls-47{fill:#d0d0d0;}.cls-48{fill:#5a5a5a;}.cls-49{fill:#cdcdcd;}.cls-50{fill:#929292;}.cls-51{clip-path:url(#clip-path);}.cls-52{clip-path:url(#clip-path-3);}.cls-53{fill:#7b220f;}.cls-54{stroke:#fffbfa;stroke-width:0.48px;}</style><clipPath id="clip-path" transform="translate(0.01)"><rect class="cls-1" y="0.14" width="63" height="95"/></clipPath><clipPath id="clip-path-3" transform="translate(0.01)"><rect class="cls-1" x="193.17" y="8.79" width="54.21" height="95"/></clipPath></defs><g id="Calque_2" data-name="Calque 2"><g id="Calque_2-2" data-name="Calque 2"><g id="corps"><path class="cls-2" d="M114.4,73.12v9.76a8,8,0,0,1-1.17-.92,9.54,9.54,0,0,1-2.71-5.08V81.8a6.92,6.92,0,0,1-1.5-1,7.9,7.9,0,0,1-1.33-1.5,8.78,8.78,0,0,1-1.37-4l-.22-.07v5.9a10.58,10.58,0,0,1-4.21-6.07v-1.8l-3.79,0L98,82.88a9,9,0,0,1-1.84-1.63,9.35,9.35,0,0,1-2-4.32v4.89a7,7,0,0,1-1.86-1.23,8,8,0,0,1-2.43-5.28L89.74,81a7.18,7.18,0,0,1-4.21-4.33v-.91l24.4-31.51L110,29.54a8.86,8.86,0,0,1,1.21,1.16,8.12,8.12,0,0,1,1.07,1.6l.46-.09A8.74,8.74,0,0,0,110,22.12l0-6.3h1.8l3.94-4,.22.91,0,.39,0,20.78a4.2,4.2,0,0,1,.77-.29,3.89,3.89,0,0,1,.9-.11,8.35,8.35,0,0,1,1,0,10,10,0,0,1,2,.31c.62.18,1.39.4,1.4.72s-1.25.82-1.38.86c-.63.19-1.17.2-1.22.46,0,.1,0,.25.1.25,1,.14,1.7.61,1.31.45a7,7,0,0,1,1.19.82c2.73,2.49,2.24,4.12,2.33,4.38l-2.25-1.23,0,21.22a10.48,10.48,0,0,1-1.89-2,11.06,11.06,0,0,1-2-5l-.12-.74,0,7.69c0,.09,0,.2,0,.23s-1.18-.93-1.46-1.25l-.07-.06a9.47,9.47,0,0,1-1.41-2.32,13.75,13.75,0,0,1-.86-4.79v8a8.48,8.48,0,0,1-1.89-1.43,8.87,8.87,0,0,1-2-3.09,8.72,8.72,0,0,1-.64-2.9v-.51l0,14.15a5.82,5.82,0,0,0,.94,2.86,6,6,0,0,0,3.42,2.42Z" transform="translate(0.01)"/><path class="cls-3" d="M122.14,61.75l.06,11.45-7.8-.08a5.71,5.71,0,0,1-2.65-1.28,5.83,5.83,0,0,1-1.91-3.63l-.06-14.52A9.54,9.54,0,0,0,112,59.76a8.87,8.87,0,0,0,2.29,1.85v-8c.1,2.15.59,6.59,3.44,8l.36.16c0-2.56,0-5.13,0-7.69a12.09,12.09,0,0,0,3.54,7.29Q121.9,61.57,122.14,61.75Z" transform="translate(0.01)"/><path class="cls-4" d="M85.53,52.54l-6.26,7.15-6.12-6.32,9.11-15.94a3.29,3.29,0,0,1,.59-.47,3.16,3.16,0,0,1,.71-.36v-.32a5.67,5.67,0,0,1-1-.26,6.06,6.06,0,0,1-1.86-1,4.74,4.74,0,0,1,1.19-.65,4.35,4.35,0,0,1,1.13-.28l3.76,0A12.85,12.85,0,0,0,88.9,40.1a25,25,0,0,0,2.55,2.5,3.2,3.2,0,0,0,.78.54,3.07,3.07,0,0,0,.64.23q0-4.14-.05-8.28a8.86,8.86,0,0,0,2.29,4.55,8,8,0,0,0,1.54,1.25V35a8.7,8.7,0,0,0,3.13,5.41,6.25,6.25,0,0,0,.82.51v-6a8,8,0,0,0,3,5.49,8.24,8.24,0,0,0,.77.42c0,.86,0,1.7,0,2.55l-1.52,1.16,0-1.15h-2.62l0,5L98.76,50l-3.57,0,0,5-1.45,1.81H93l0-.3-2.73,0v4.92L88,63.92V63.1H85.53Z" transform="translate(0.01)"/><path class="cls-3" d="M110.52,76.88a9.61,9.61,0,0,0,2.12,4.44,9,9,0,0,0,1.76,1.56l.08,6.33a5.61,5.61,0,0,0,.23,1.08,5,5,0,0,0,.39.92,15.51,15.51,0,0,0,1,1.29,14.88,14.88,0,0,0,1.17,1.21c.3.22.62.43,1,.64a12.73,12.73,0,0,0,1.76.91,6.35,6.35,0,0,0,2,.33H81.69V91.18a4.29,4.29,0,0,1,2.1-2.06l1.74,0V76.7a7.14,7.14,0,0,0,2.17,3.16,7,7,0,0,0,2,1.16l.11-5.72a7.64,7.64,0,0,0,2,4.89,7.19,7.19,0,0,0,2.3,1.63V76.93a9.35,9.35,0,0,0,2,4.32A9,9,0,0,0,98,82.88l.06,7.64a4.81,4.81,0,0,1,1.76-1.34l2.11-.1V75.3a11.33,11.33,0,0,0,4.15,5.86v-5.9l.22.07a8.39,8.39,0,0,0,2.45,5.24,7.67,7.67,0,0,0,1.75,1.23Z" transform="translate(0.01)"/></g><g id="Ceinture"><polygon class="cls-5" points="85.54 67.96 85.54 75.79 91.67 67.87 89.53 67.87 89.5 67.75 87.97 67.75 87.95 67.96 85.54 67.96"/><polygon class="cls-5" points="87.97 64.24 87.97 63.91 90.24 61.42 96.72 61.42 92.14 67.32 92.05 63.15 89.51 63.15 89.48 64.24 87.97 64.24"/><polygon class="cls-5" points="93.92 56.46 94.43 56.46 97.07 56.46 97.13 60.83 101.75 54.86 95.17 54.9 93.92 56.46"/><polygon class="cls-5" points="98.76 49.96 100.17 48.23 106.96 48.23 102.01 54.6 101.95 50 98.76 49.96"/><polygon class="cls-5" points="104.35 44.66 104.35 43.37 102.82 44.52 102.84 44.66 104.35 44.66"/><path class="cls-5" d="M107,48.05l2.91-3.76L110,36a11.23,11.23,0,0,1-5.67,7.39H107Z" transform="translate(0.01)"/><polygon class="cls-6" points="100.16 43.37 100.17 48.23 102.84 48.23 102.77 43.37 100.16 43.37"/><polygon class="cls-6" points="90.24 56.46 90.26 61.32 92.92 61.32 92.85 56.46 90.24 56.46"/><polygon class="cls-6" points="94.43 56.4 94.47 61.32 97.08 61.32 97.07 56.4 94.43 56.4"/><polygon class="cls-6" points="95.23 50 95.25 54.86 97.91 54.86 97.84 50 95.23 50"/><polygon class="cls-6" points="99.34 50 99.35 54.86 102.02 54.86 101.95 50 99.34 50"/><polygon class="cls-6" points="104.35 43.37 104.36 48.23 107.03 48.23 106.96 43.37 104.35 43.37"/><polygon class="cls-6" points="89.56 63.09 89.53 67.87 92.24 67.83 92.17 63.09 89.56 63.09"/><polygon class="cls-6" points="85.54 63.09 85.55 67.96 88.22 67.96 88.15 63.09 85.54 63.09"/><polygon class="cls-7" points="97.91 49.95 99.42 49.99 99.44 54.9 97.91 54.89 97.91 49.95"/><polygon class="cls-7" points="92.98 56.41 94.43 56.4 94.45 61.42 92.92 61.42 92.98 56.41"/><polygon class="cls-7" points="88.11 63.1 89.63 63.1 89.64 67.95 88.11 67.95 88.11 63.1"/><polygon class="cls-7" points="102.77 43.37 104.33 43.38 104.35 48.23 102.69 48.23 102.77 43.37"/></g><g id="yeux"><path class="cls-8" d="M96.83,23.68H95a2.25,2.25,0,0,1-.62-.15,2.21,2.21,0,0,1-.63-.41,2.27,2.27,0,0,1-.42-.78,2.53,2.53,0,0,1-.1-.91,2.28,2.28,0,0,1,.14-.77,1.79,1.79,0,0,1,.38-.56,2.31,2.31,0,0,1,.74-.54,2.21,2.21,0,0,1,1-.19,2.8,2.8,0,0,1,.71.06,3,3,0,0,1,1.28.69,3.19,3.19,0,0,1,.46.44,7.43,7.43,0,0,1,.52.62Z" transform="translate(0.01)"/><path class="cls-8" d="M100.15,23.78H102a2,2,0,0,0,1.25-.57,2.69,2.69,0,0,0,.55-1.06,3,3,0,0,0,.08-.66,2.28,2.28,0,0,0-.12-.73,2,2,0,0,0-.38-.66,1.91,1.91,0,0,0-.49-.45,2.25,2.25,0,0,0-1.36-.31,3.06,3.06,0,0,0-.84.13,4,4,0,0,0-1.19.67,3.8,3.8,0,0,0-.49.41,7,7,0,0,0-.48.6C99.07,22,99.64,22.94,100.15,23.78Z" transform="translate(0.01)"/></g><g id="visage"><path class="cls-7" d="M92.77,27.57h11.58V26.18a3.13,3.13,0,0,0-.59-1.36,3.2,3.2,0,0,0-1.41-1.05L95,23.68a3,3,0,0,0-2.2,2.58Z" transform="translate(0.01)"/><path class="cls-3" d="M111.77,15.81c-.18.22-.63.36-1.8,0l0,6.3a8.56,8.56,0,0,1,2.73,10.1l-.46.08A8.83,8.83,0,0,0,110,29.53l0,6.53a11.74,11.74,0,0,1-2.21,4.51,12.38,12.38,0,0,1-3.28,2.79h-.12V26.17a3.35,3.35,0,0,0-1.19-2,3.15,3.15,0,0,0-.81-.43,2.68,2.68,0,0,0,1.41-1.4,2.17,2.17,0,0,0,.13-.56,2.4,2.4,0,0,0-.19-1.24,2.24,2.24,0,0,0-.48-.66,2.35,2.35,0,0,0-.47-.36,3,3,0,0,0-1.45-.2,3.37,3.37,0,0,0-1.35.52,4.43,4.43,0,0,0-.82.6c-.06.06-.17.17-.29.31s-.2.26-.26.34l-.18.07A6.39,6.39,0,0,0,97.21,20a2.81,2.81,0,0,0-1.36-.58,2.5,2.5,0,0,0-1.85.46,2.53,2.53,0,0,0-.66.83,2.88,2.88,0,0,0,0,1.9,2,2,0,0,0,.34.55,2,2,0,0,0,1.25.57,1.43,1.43,0,0,0-.57.19,5.42,5.42,0,0,0-1.09.94,2.73,2.73,0,0,0-.54,1.43l.12,17.12a4.17,4.17,0,0,1-.91-.28c-.25-.11-1.08-.5-2.74-2.51-.16-.2-.43-.52-.63-.79A12.19,12.19,0,0,1,86.81,34V30.49l-.42,0a4.41,4.41,0,0,1-.58,1,4,4,0,0,1-.92.88,11.07,11.07,0,0,1-.43-3.53,10.64,10.64,0,0,1,.26-1.94A10.17,10.17,0,0,1,86.58,23l.21-7.41h-2.3a8.14,8.14,0,0,1,5.87-5.17,9.51,9.51,0,0,0-.61-.74c-.16-.19-.33-.35-.48-.52a7.31,7.31,0,0,1,9,6c.11-.39,1.58-5,5.73-6.05a7.35,7.35,0,0,1,3.55,0,4.7,4.7,0,0,0-.43.35,4.62,4.62,0,0,0-1,1.2A6.92,6.92,0,0,1,110,12.41C111.14,13.47,112.22,15.22,111.77,15.81Z" transform="translate(0.01)"/><polygon class="cls-9" points="98.47 21.03 96.77 23.73 100.38 23.75 98.47 21.03"/><path class="cls-4" d="M87.13,12c-.36-.21.73-5,4.51-8.41A14.55,14.55,0,0,1,99.88.08a15,15,0,0,1,7.75,1.25,14.45,14.45,0,0,1,5,4A12.65,12.65,0,0,1,115.32,10a5.5,5.5,0,0,1,.49,2.83c-.47,2.12-3,3.6-3.87,3.11-.35-.22-.11-.64-.57-1.64a5.94,5.94,0,0,0-1.68-2,4.74,4.74,0,0,0-2-1.23c-.75-.18-1.28,0-1.38-.28-.17-.42,1.14-1.15,1-1.56,0,0-.1-.17-1.05-.19a6.47,6.47,0,0,0-3.57.7,7.93,7.93,0,0,0-2.35,1.75c-1.54,1.73-1.69,3.83-2,3.77-.11,0-.14-.32-.17-.52a6.34,6.34,0,0,0-1.58-3.11,6.2,6.2,0,0,0-3.17-2.27,13.42,13.42,0,0,0-2.08-.25c-1.65-.13-1.91,0-2,.11s.33.56.62.81.49.34.48.44c0,.27-1.1.16-2.23.77C87.43,11.64,87.25,12,87.13,12Z" transform="translate(0.01)"/><path class="cls-10" d="M92.77,27.57h11.58V40.82a7,7,0,0,1-3.74-5.92v6a8.29,8.29,0,0,1-2-1.72A8.78,8.78,0,0,1,96.66,35v5.92a8.47,8.47,0,0,1-3.83-5.8Z" transform="translate(0.01)"/></g><g id="bras-mouvant"><path class="cls-3" d="M84,52.69l7.8,13.58,1.09,1.89a3.09,3.09,0,0,1,.2,2,2.57,2.57,0,0,1-1.86,1.63,10.22,10.22,0,0,1-5.12-.59,17.86,17.86,0,0,1-4.45-2.7,6.68,6.68,0,0,1-1.33-1.41l-1-1.94-8-5.23a11.2,11.2,0,0,1,4.58.86L70.2,57a15,15,0,0,1,4.72.88l-2.36-4.4a1.92,1.92,0,0,1,1.07-2.11,4.76,4.76,0,0,1,2.33-.4Z" transform="translate(0.01)"/></g><path class="cls-3" d="M99.74,18.46a4.22,4.22,0,0,0,6.83,2.36" transform="translate(0.01)"/><path class="cls-3" d="M97.15,18.15a4.68,4.68,0,0,1-6.6,3.37" transform="translate(0.01)"/><path class="cls-11" d="M92.21,21.21a4.77,4.77,0,0,0,2.92-.63,4.38,4.38,0,0,0,1.63-1.71" transform="translate(0.01)"/><path class="cls-11" d="M104.93,21.27a4.8,4.8,0,0,1-2.93-.63,4.34,4.34,0,0,1-1.62-1.71" transform="translate(0.01)"/><path class="cls-12" d="M81.38,171.09c-.24-1.6-.49-4.43-.5-4.62-.2-2.22-.29-4.08-.34-5.39a18.31,18.31,0,0,1,3.57-12,15.83,15.83,0,0,1,2.71-2.72,8,8,0,0,0,2.78,6.11,7.33,7.33,0,0,0,3.78,1.5,7.34,7.34,0,0,0,6.72-7.61,13.07,13.07,0,0,1,3,3c1.85,2.64,2.2,5.28,2.78,9.67a36.42,36.42,0,0,1,.39,6.17,33.79,33.79,0,0,1-.81,6.5l-3.24,9.3H84.9A29.94,29.94,0,0,1,81.38,171.09Z" transform="translate(0.01)"/><path class="cls-13" d="M75.37,200.14a4.47,4.47,0,0,0-2,3.67,4.74,4.74,0,0,0,2.89,2.45,4.62,4.62,0,0,0,3.22-.34,3.63,3.63,0,0,0,.84,1.56,3.57,3.57,0,0,0,1.78,1.05,7.22,7.22,0,0,0,2.66-.66,7.74,7.74,0,0,0,1.73-1.11,13.44,13.44,0,0,0,2.22,1.11,12.54,12.54,0,0,0,2.44.66,6.27,6.27,0,0,0,2.39-.05,6.39,6.39,0,0,0,2.73-1.33,17.52,17.52,0,0,0,11.44,0,4.34,4.34,0,0,0,1.84-1.28,4.23,4.23,0,0,0,.83-1.58,2.31,2.31,0,0,0,1.39.58,2.36,2.36,0,0,0,1.67-.58l-2.56-5a16.24,16.24,0,0,1-9.28-11.28,4.54,4.54,0,0,1-2.61-1,4.46,4.46,0,0,1-1.45-2l-3.83,2.72-4.17-2.72a9.2,9.2,0,0,1-4.5,3.22,15.15,15.15,0,0,1-2.33,6A15.55,15.55,0,0,1,75.37,200.14Z" transform="translate(0.01)"/><polygon class="cls-14" points="91.7 155.8 94.47 155.8 94.86 157.58 93.09 159.47 91.31 157.58 91.7 155.8"/><polygon class="cls-13" points="81.05 175.64 81.39 171.47 85.14 180.46 85.71 183.88 81.05 175.64"/><polygon class="cls-13" points="104.91 172.52 98.68 185.81 103.18 185.81 105.44 176.07 104.91 172.52"/><path class="cls-15" d="M105.43,175.81c.08,1.5.2,3.06.39,4.66a69,69,0,0,0,5.06,18.9,15.15,15.15,0,0,1-9.28-11.28l.28-4.5a11.06,11.06,0,0,1,2.28-6.45A10.18,10.18,0,0,1,105.43,175.81Z" transform="translate(0.01)"/><path class="cls-15" d="M81,175.08a66.77,66.77,0,0,1-1.39,11.78,65.9,65.9,0,0,1-4.28,13.28A15.2,15.2,0,0,0,85,188.59l-1.84.11a5.26,5.26,0,0,0,1.33-1.56A5.74,5.74,0,0,0,85,183,14.67,14.67,0,0,0,81,175.08Z" transform="translate(0.01)"/><path class="cls-16" d="M86.76,146.74A7.68,7.68,0,0,0,89,152.33a7.49,7.49,0,0,0,4.37,2,7.59,7.59,0,0,0,5.11-2.73,7.5,7.5,0,0,0,1.61-4.89,5.23,5.23,0,0,0-1.89-2.44,5.56,5.56,0,0,0-4.33-.78c-.26-.08-3.27-1-5.5.89A5.28,5.28,0,0,0,86.76,146.74Z" transform="translate(0.01)"/><path class="cls-17" d="M92.15,143.63l-2-2.17a1,1,0,0,1,1-1.66l2.18.66,2.53-.66a.88.88,0,0,1,.73.22.94.94,0,0,1,.05,1.17l-2,2.59Z" transform="translate(0.01)"/><path class="cls-18" d="M92.39,142.76a7.59,7.59,0,0,0-1.61-1.06,8,8,0,0,0-1.39-.5,3.07,3.07,0,0,0-.56,1.84,3.18,3.18,0,0,0,1.11,2.22l2.62-1.11h1.66a6.55,6.55,0,0,0,1.61.77,6.19,6.19,0,0,0,1.39.28,4.76,4.76,0,0,0,.56-1.78,4.91,4.91,0,0,0-.22-2,5.62,5.62,0,0,0-2,.44,5.92,5.92,0,0,0-1.44.89Z" transform="translate(0.01)"/><path class="cls-19" d="M100.56,146.71a7.26,7.26,0,0,1,3.43-3.52,7.15,7.15,0,0,1,3.61-.67,13.1,13.1,0,0,1,.33,4.06,13,13,0,0,1-.77,3.55,5.48,5.48,0,0,1-1.28,1.84,5.65,5.65,0,0,1-1.14.82,12.57,12.57,0,0,0-1.8-3.6A12.42,12.42,0,0,0,100.56,146.71Z" transform="translate(0.01)"/><path class="cls-20" d="M86.36,146.71a7.31,7.31,0,0,0-3.43-3.52,7.18,7.18,0,0,0-3.61-.67,12.75,12.75,0,0,0-.34,4.06,12.91,12.91,0,0,0,.78,3.55A5.48,5.48,0,0,0,81,152a5.39,5.39,0,0,0,1.14.82,12.27,12.27,0,0,1,4.18-6.08Z" transform="translate(0.01)"/><circle class="cls-14" cx="89.38" cy="154.65" r="1.22"/><circle class="cls-14" cx="97.3" cy="154.65" r="1.22"/><polygon class="cls-21" points="93.09 161.08 97.81 164.25 97.81 168.69 93.41 172.52 88.36 168.69 88.36 164.25 93.09 161.08"/><polygon class="cls-21" points="89.36 181.04 89.54 185.27 94.1 188.6 98.28 185.46 97.29 185.27 97.47 181.04 89.36 181.04"/><path class="cls-22" d="M93.08,159.51v1.63a16.58,16.58,0,0,1-1.82,1.52,16.34,16.34,0,0,1-2.9,1.69v7.14l1,10.08.16,3.69A7.35,7.35,0,0,1,88.08,187a8.09,8.09,0,0,1-5,1.93,9.19,9.19,0,0,0,1.41-2.87,13.76,13.76,0,0,0,.39-3c.06-1,.1-2.27,0-3.83q-1.14-6.44-2.29-12.87a12.7,12.7,0,0,1,3.89-8.21,7.71,7.71,0,0,1,5.11-2.31q-.06.4-.15.84a9.6,9.6,0,0,1-.24,1,5.91,5.91,0,0,1,1.08,1A6.69,6.69,0,0,1,93.08,159.51Z" transform="translate(0.01)"/><path class="cls-22" d="M93.08,159.47v1.61a16.56,16.56,0,0,0,1.82,1.5,17.13,17.13,0,0,0,2.9,1.67v7.05l-1,10-.16,3.66a7.27,7.27,0,0,0,1.44,1.7,8.12,8.12,0,0,0,5,1.91,9,9,0,0,1-1.41-2.83,13.53,13.53,0,0,1-.39-3c0-1-.1-2.24,0-3.78q1.14-6.36,2.29-12.73a12.47,12.47,0,0,0-1.52-5.05,12.21,12.21,0,0,0-2.37-3.06,7.73,7.73,0,0,0-5.11-2.28c0,.27.09.54.15.83s.15.66.24,1a6.28,6.28,0,0,0-1.78,1.89Z" transform="translate(0.01)"/><path class="cls-23" d="M157.73,129.05c1.81.38,2.83.57,3.5,1.56a10.64,10.64,0,0,0,1.45,2.11,6.31,6.31,0,0,0,1,.86,5.62,5.62,0,0,0,.85-.76,10,10,0,0,0,.94-1.3c.37-.48,1.19-.87,3.15-.42a3.46,3.46,0,0,1,2,1.56,4.57,4.57,0,0,1,.15,4.16,2.44,2.44,0,0,1-1.12,2.19,1.59,1.59,0,0,1-1.12.14h-10.3a7.11,7.11,0,0,0-5.13,3.46,8.72,8.72,0,0,0-1.12,4.64,5.26,5.26,0,0,1-2.83-.47c-2.47-1.17-3.1-4-3.25-4.67a7,7,0,0,1-.19-1.6c0-2.78-.08-7.12-.13-12.55l1.52.57h0c.85.58,3.5.3,3.5.3s.84,0,2.43,0A25.18,25.18,0,0,1,157.73,129.05Z" transform="translate(0.01)"/><path class="cls-24" d="M170.64,115a10.65,10.65,0,0,0-1.53-1.34l-1.37-.08a7.23,7.23,0,0,1-2.5-.15c-1.82,0-3.64-.17-5.47-.09a1.61,1.61,0,0,1-1.15-.07c-1.58.06-3.17.18-4.75.25-1.77.07-8.23.59-9.5,1.8a8.69,8.69,0,0,0-2.52,5.89,9.66,9.66,0,0,0,1.81,6,6,6,0,0,0,3.4,2.86,4.88,4.88,0,0,0,1.58.12s0,0,8.54.19a5,5,0,0,1,1.53.26,3.65,3.65,0,0,1,2.22,1.36c.28.47.1.61.52,1.42.26.5.49.94.9,1a1.25,1.25,0,0,0,1-.32c.91-.61.71-1.19,1.43-1.62a4.35,4.35,0,0,1,2.2-.38,3.29,3.29,0,0,1,1.36.13,3,3,0,0,1,1.29.9,3.21,3.21,0,0,1,.71,1.68,4.46,4.46,0,0,1,0,1,5.15,5.15,0,0,1-.58,2.46c-.33.54-.64.7-.58.78s1.93-.42,3.1-1.88a6.14,6.14,0,0,0,1.29-3.1V120.2A12.4,12.4,0,0,0,170.64,115Z" transform="translate(0.01)"/><path class="cls-24" d="M169.11,113.69l-.68-.39h-18.3a13.48,13.48,0,0,0-3,.69,13.86,13.86,0,0,0-2.33,1.09" transform="translate(0.01)"/><path class="cls-25" d="M151.3,146.62h18.3a3.62,3.62,0,0,0,1.69-1.09,3.83,3.83,0,0,0,.77-3,3.39,3.39,0,0,0-3.62-3.37l-10.15.07a7.25,7.25,0,0,0-7,7.43Z" transform="translate(0.01)"/><rect class="cls-26" x="158.12" y="139.15" width="8.21" height="7.43"/><path class="cls-27" d="M143.47,146.59h7.31a6.06,6.06,0,0,1-3.29-1.65,6.21,6.21,0,0,1-1.76-4.43,7.3,7.3,0,0,0-2.26,6.08Z" transform="translate(0.01)"/><path class="cls-25" d="M151.29,154.55a8.57,8.57,0,0,1-4.91-2,8.67,8.67,0,0,1-2.91-5.95h7.82Z" transform="translate(0.01)"/><path class="cls-26" d="M145.73,140.51a7.27,7.27,0,0,0-2.26,6.08h7.82a6.68,6.68,0,0,1-3.88-2.07A6.59,6.59,0,0,1,145.73,140.51Z" transform="translate(0.01)"/><path class="cls-26" d="M158.41,154.55h-7.12v-8a8.11,8.11,0,0,1,4.66,2.2A8.38,8.38,0,0,1,158.41,154.55Z" transform="translate(0.01)"/><rect class="cls-25" x="151.3" y="154.55" width="7.12" height="6.27"/><rect class="cls-26" x="151.3" y="160.82" width="7.12" height="6.27"/><rect class="cls-25" x="151.3" y="167.09" width="7.12" height="6.27"/><rect class="cls-26" x="151.3" y="173.37" width="7.12" height="6.27"/><rect class="cls-25" x="151.3" y="179.64" width="7.12" height="6.27"/><path class="cls-28" d="M182.79,195.68l-6.08-42.3a9.53,9.53,0,0,0-2.32-4.14,9.63,9.63,0,0,0-4.6-2.65H151.48a7.84,7.84,0,0,1,6.73,8q-.15,15.67-.32,31.37h-7.11v9.76Z" transform="translate(0.01)"/><path class="cls-28" d="M131.57,146.59h11.9a8.87,8.87,0,0,0,2.91,5.95l-.07,43.14H131.57Z" transform="translate(0.01)"/><path class="cls-29" d="M131.57,157H128.4a6.93,6.93,0,0,1-1.81-1.29,7.37,7.37,0,0,1-1.43-1.94V148a1.88,1.88,0,0,1,.52-.91,1.76,1.76,0,0,1,1-.45h4.92Z" transform="translate(0.01)"/><path class="cls-30" d="M146.38,180.35h4.91V154.48a8.51,8.51,0,0,1-2.68-.63,8.4,8.4,0,0,1-2.23-1.37Z" transform="translate(0.01)"/><polygon class="cls-31" points="146.38 180.35 146.38 201.96 156.6 201.96 156.6 195.68 151.3 195.68 151.3 180.35 146.38 180.35"/><rect class="cls-31" x="161.2" y="195.68" width="10.16" height="6.27"/><path class="cls-32" d="M156.86,207.92v-6H146.64a3.37,3.37,0,0,0-2.78,1,3.29,3.29,0,0,0-.85,2,3.34,3.34,0,0,0,1.17,2.29,3.28,3.28,0,0,0,2.46.71Z" transform="translate(0.01)"/><path class="cls-32" d="M161.19,202h10.16v6H161.19a3,3,0,0,1-2.39-.26,2.93,2.93,0,0,1-1.36-2.74,3,3,0,0,1,3.75-3Z" transform="translate(0.01)"/><circle class="cls-6" cx="147.72" cy="134.63" r="1.33"/><circle class="cls-6" cx="152.63" cy="134.63" r="1.33"/><circle class="cls-9" cx="151.8" cy="134.22" r="0.5"/><circle class="cls-9" cx="146.86" cy="134.13" r="0.5"/><path class="cls-33" d="M232.72,129.34c1.79.38,2.8.56,3.46,1.54a10.5,10.5,0,0,0,1.43,2.09,6.71,6.71,0,0,0,1,.85,5.49,5.49,0,0,0,.83-.75,8.91,8.91,0,0,0,.93-1.28c.37-.48,1.18-.86,3.12-.43a3.49,3.49,0,0,1,2,1.55,4.52,4.52,0,0,1,.14,4.12,2.43,2.43,0,0,1-1.1,2.17,1.75,1.75,0,0,1-1.11.14H233.23a7,7,0,0,0-5.07,3.41,8.62,8.62,0,0,0-1.11,4.59,5.26,5.26,0,0,1-2.8-.46c-2.44-1.16-3.07-4-3.22-4.62a7.31,7.31,0,0,1-.18-1.58c0-2.76-.08-7.05-.13-12.42l1.5.56h0c.85.58,3.46.3,3.46.3h2.41A25.66,25.66,0,0,1,232.72,129.34Z" transform="translate(0.01)"/><path class="cls-34" d="M245.49,115.47a11.68,11.68,0,0,0-1.52-1.32l-1.35-.08a7,7,0,0,1-2.47-.15c-1.81,0-3.61-.16-5.41-.09a1.58,1.58,0,0,1-1.14-.07c-1.57.07-3.13.18-4.7.25-1.75.07-8.14.58-9.39,1.78a8.59,8.59,0,0,0-2.5,5.82,9.62,9.62,0,0,0,1.79,6,6,6,0,0,0,3.36,2.83,4.51,4.51,0,0,0,1.57.11s0,0,8.44.2a5.25,5.25,0,0,1,1.52.25,3.65,3.65,0,0,1,2.19,1.34c.28.47.11.61.52,1.41.25.5.48.93.89,1a1.27,1.27,0,0,0,1-.32c.9-.6.7-1.18,1.41-1.6a4.21,4.21,0,0,1,2.17-.39,3.59,3.59,0,0,1,1.35.13,3.06,3.06,0,0,1,1.28.9,3.19,3.19,0,0,1,.7,1.66,4.36,4.36,0,0,1,0,1,5.14,5.14,0,0,1-.57,2.43c-.33.53-.63.7-.58.77s1.91-.42,3.07-1.86c.91-1.12,1.28-3.07,1.28-16.82A12.41,12.41,0,0,0,245.49,115.47Z" transform="translate(0.01)"/><path class="cls-34" d="M244,114.15l-.66-.39H225.2a13.27,13.27,0,0,0-3,.69,12.8,12.8,0,0,0-2.3,1.07" transform="translate(0.01)"/><path class="cls-27" d="M218.61,146.68h7.23a5.9,5.9,0,0,1-3.25-1.63,6.11,6.11,0,0,1-1.74-4.37,7.12,7.12,0,0,0-2.24,6Z" transform="translate(0.01)"/><path class="cls-35" d="M226.35,146.72h18.11a3.59,3.59,0,0,0,1.67-1.08,3.78,3.78,0,0,0,.76-3,3.49,3.49,0,0,0-1.28-2.62,3.37,3.37,0,0,0-2.3-.7l-10,.06a7.18,7.18,0,0,0-6.92,7.35Z" transform="translate(0.01)"/><rect class="cls-36" x="233.1" y="139.34" width="8.13" height="7.35"/><path class="cls-36" d="M226.35,154.56a8.48,8.48,0,0,1-4.86-2,8.64,8.64,0,0,1-2.88-5.9h7.74Z" transform="translate(0.01)"/><path class="cls-35" d="M220.85,140.68a7,7,0,0,0-1.73,2.5,6.25,6.25,0,0,0-.26.73,7.42,7.42,0,0,0-.25,2.77h7.74a6.43,6.43,0,0,1-5.5-6Z" transform="translate(0.01)"/><path class="cls-35" d="M233.39,154.56h-7v-7.88a8.08,8.08,0,0,1,4.61,2.19A8.24,8.24,0,0,1,233.39,154.56Z" transform="translate(0.01)"/><rect class="cls-36" x="226.36" y="154.56" width="7.04" height="6.21"/><rect class="cls-35" x="226.36" y="160.76" width="7.04" height="6.21"/><rect class="cls-36" x="226.36" y="166.97" width="7.04" height="6.21"/><rect class="cls-35" x="226.36" y="173.18" width="7.04" height="6.21"/><rect class="cls-36" x="226.36" y="179.38" width="7.04" height="6.21"/><path class="cls-28" d="M257.51,195.25l-6-41.84a9.36,9.36,0,0,0-2.3-4.1,9.57,9.57,0,0,0-4.54-2.63H226.54a8,8,0,0,1,5,2.89,7.89,7.89,0,0,1,1.67,5q-.16,15.51-.32,31h-7v9.66Z" transform="translate(0.01)"/><path class="cls-29" d="M204.09,157.18H201a7.14,7.14,0,0,0-3.2,3.2v5.76a1.69,1.69,0,0,0,.51.89,1.65,1.65,0,0,0,1,.45h4.86Z" transform="translate(0.01)"/><path class="cls-30" d="M221.49,180.09h4.86V154.5a8.65,8.65,0,0,1-2.65-.63,8.41,8.41,0,0,1-2.21-1.36Z" transform="translate(0.01)"/><polygon class="cls-31" points="221.5 180.09 221.5 201.45 231.6 201.45 231.6 195.25 226.36 195.25 226.36 180.09 221.5 180.09"/><rect class="cls-31" x="236.15" y="195.25" width="10.04" height="6.21"/><path class="cls-32" d="M231.85,207.35v-5.94h-10.1a3.33,3.33,0,0,0-2.76,1,3.27,3.27,0,0,0-.83,2,3.3,3.3,0,0,0,1.15,2.27,3.26,3.26,0,0,0,2.44.7Z" transform="translate(0.01)"/><path class="cls-32" d="M236.14,201.45h10v6h-10a2.81,2.81,0,0,1-3.71-3,3.12,3.12,0,0,1,1-2.27A3.17,3.17,0,0,1,236.14,201.45Z" transform="translate(0.01)"/><circle class="cls-6" cx="222.81" cy="134.86" r="1.32"/><circle class="cls-6" cx="227.68" cy="134.86" r="1.32"/><circle class="cls-9" cx="226.85" cy="134.46" r="0.5"/><circle class="cls-9" cx="221.97" cy="134.36" r="0.5"/><path class="cls-34" d="M248.36,120.59a51,51,0,0,1,2,13.43c0,1.86-.08,3.37-.13,4.11a49.66,49.66,0,0,1-1.89,10.42,8,8,0,0,0-1.05-.79,7.5,7.5,0,0,0-2.66-1.08,3.68,3.68,0,0,0,1.62-1.23,4.46,4.46,0,0,0,0-4.77,3.56,3.56,0,0,0-.64-.67,3.6,3.6,0,0,0-1.6-.74l.89-1.45Z" transform="translate(0.01)"/><circle class="cls-37" cx="242.14" cy="138.61" r="0.46"/><path class="cls-34" d="M218.8,127.56q.6,7,1.19,14.09l.86-1,0-10.91Z" transform="translate(0.01)"/><path class="cls-28" d="M218.61,146.68l2.88,5.83,0,15H204.09v-10.3h10.3l2-8.67a2.28,2.28,0,0,1,.58-1.15A2.32,2.32,0,0,1,218.61,146.68Z" transform="translate(0.01)"/><path class="cls-38" d="M60.12,119.61l13.08,8.92A2.1,2.1,0,0,1,70.85,132l-13.08-8.92Z" transform="translate(0.01)"/><path class="cls-38" d="M47.94,125.66,61,134.57c1.6,1,1.85,2.84,1.18,3.64s-2.26.88-3.53-.19l-13.08-8.91Z" transform="translate(0.01)"/><path class="cls-38" d="M55.66,121.53l13.08,8.91a2.15,2.15,0,1,1-2.36,3.45L53.31,125Z" transform="translate(0.01)"/><path class="cls-38" d="M52.41,124l13.08,8.91a2.09,2.09,0,1,1-2.35,3.45l-13.08-8.91Z" transform="translate(0.01)"/><path class="cls-38" d="M48,116.59l2.11.84a6.32,6.32,0,0,1,2.5-2.25,6.67,6.67,0,0,1,4.31-.47,7.76,7.76,0,0,1,2.46.91l2.33,5,11.52,8.09-4.44,1.71-3.25,2.43L61,134.57l-3.56,2.63-11.87-8.09Z" transform="translate(0.01)"/><path class="cls-39" d="M75,127.71l-1.77,1-11.52-8.09-1.82,2.25a4.16,4.16,0,0,1-6.53.54l6.85-8.89,4.61-1.08a4.91,4.91,0,0,1,3.64.5A4.66,4.66,0,0,1,70.23,116l27.86-5.36,2.78,13.6Z" transform="translate(0.01)"/><polygon class="cls-39" points="53.31 123.43 60.17 114.54 64.78 113.46 70.24 116.04 90.1 112.22 98.09 110.68 100.88 124.28 74.95 127.71 68.85 124.71 63.17 121.39 61.67 119.73 59.85 122.89 53.31 123.43"/><path class="cls-40" d="M23.74,108.43l24.85,4.93L48,116.59l-2.79,14-25.28-5.25Z" transform="translate(0.01)"/><rect class="cls-39" x="48.73" y="130.13" width="5.46" height="3.41" rx="1.71" transform="translate(-83.25 88.46) rotate(-50.83)"/><rect class="cls-39" x="51.72" y="131.77" width="5.46" height="3.51" rx="1.76" transform="translate(-83.46 91.4) rotate(-50.83)"/><rect class="cls-39" x="54.73" y="133.66" width="5.46" height="3.74" rx="1.87" transform="translate(-83.9 94.47) rotate(-50.83)"/><path class="cls-39" d="M47.63,131.75c-.56-.52-.74-1.41-.5-1.57.42-.3,2.49,1.47,2.26,1.92C49.26,132.37,48.26,132.34,47.63,131.75Z" transform="translate(0.01)"/><path class="cls-39" d="M77.85,114.57a35.5,35.5,0,0,0,6.63-3.89c3.28-2.81,4.73-2.94,5.79-4.61a66.91,66.91,0,0,0-2.84,7.82c1.47-.92,2.12-2.28,3.16-4,1.42-2.36,3.5-3.22,4.5-4.69-.86,2.85-1.28,5.64-2.14,8.48" transform="translate(0.01)"/><path class="cls-4" d="M83.8,116.52a7.55,7.55,0,0,1,1-1.56,9.19,9.19,0,0,1,6-2.92l7.25-1.36,2.78,13.6-10.62,1.41-5.55-.51a7.32,7.32,0,0,1,2.5-2.5,7.43,7.43,0,0,1,4.57-1l-9-.57a7.62,7.62,0,0,1,2.93-2.43,8,8,0,0,1,5.28-.5Z" transform="translate(0.01)"/><path class="cls-41" d="M28.11,175.42H23.29V152.89a2.61,2.61,0,0,1,4.82,0Z" transform="translate(0.01)"/><path class="cls-41" d="M33.15,174.07H28.93V151.53a2.11,2.11,0,0,1,4.22,0Z" transform="translate(0.01)"/><path class="cls-41" d="M38.29,176.41H34.07V153.87a2.19,2.19,0,0,1,4.22,0Z" transform="translate(0.01)"/><path class="cls-41" d="M43.47,176.41H39.25V158.06a2.11,2.11,0,1,1,4.22,0Z" transform="translate(0.01)"/><path class="cls-41" d="M28.35,180.69l-4.94,2.86-8.65-13.4a2.8,2.8,0,0,1,1.3-3.47,2.56,2.56,0,0,1,2.7.51Z" transform="translate(0.01)"/><path class="cls-41" d="M23.29,166.18l4.82-.73a.74.74,0,0,0,.42.12.69.69,0,0,0,.4-.12l4.22.36a.86.86,0,0,0,.5.13.83.83,0,0,0,.42-.13l4.22.68a1.31,1.31,0,0,0,.45.4,1.24,1.24,0,0,0,.51.16l4.22,9.36a9,9,0,0,1-.9,5.29,8.76,8.76,0,0,1-2.53,3v3.82H26.9v-2.34a5.85,5.85,0,0,1-1.72-.74,5.65,5.65,0,0,1-1.77-1.85l-.12-9.48v-7.89Z" transform="translate(0.01)"/><rect class="cls-42" x="23.88" y="188.48" width="18.56" height="17.49"/><g id="yeux-2" data-name="yeux"><path class="cls-43" d="M156.53,25.05h-1.81a1.95,1.95,0,0,1-1.23-.56,2.2,2.2,0,0,1-.41-.75,2.5,2.5,0,0,1-.1-.9,1.92,1.92,0,0,1,.14-.75,1.72,1.72,0,0,1,.37-.55,2.36,2.36,0,0,1,.72-.53,2.31,2.31,0,0,1,.93-.19,2.72,2.72,0,0,1,.7.06,3,3,0,0,1,1.26.67,6.25,6.25,0,0,1,.45.44,7,7,0,0,1,.5.61Z" transform="translate(0.01)"/><path class="cls-43" d="M159.79,25.14h1.83a1.94,1.94,0,0,0,1.22-.55,2.66,2.66,0,0,0,.54-1,2.41,2.41,0,0,0,.08-.65,1.92,1.92,0,0,0-.11-.71,1.86,1.86,0,0,0-.38-.65,1.83,1.83,0,0,0-.47-.45,2.32,2.32,0,0,0-1.34-.3,3.26,3.26,0,0,0-.82.13,3.71,3.71,0,0,0-1.16.66,3.17,3.17,0,0,0-.49.4,6.75,6.75,0,0,0-.47.59C158.73,23.39,159.29,24.32,159.79,25.14Z" transform="translate(0.01)"/></g><g id="visage-2" data-name="visage"><path class="cls-44" d="M152.56,28.85h11.35V27.5a3.11,3.11,0,0,0-.58-1.33,3.21,3.21,0,0,0-1.38-1l-7.23-.08a2.94,2.94,0,0,0-2.16,2.52Z" transform="translate(0.01)"/><path class="cls-45" d="M171.17,17.34c-.16.21-.61.34-1.76,0l0,6.16a8.4,8.4,0,0,1,2.68,9.9l-.45.09a8.39,8.39,0,0,0-1.37-1.92,9.15,9.15,0,0,0-.86-.79l-.05,6.4a11.37,11.37,0,0,1-2.16,4.41A12.09,12.09,0,0,1,164,44.33h-.11V27.49a3.25,3.25,0,0,0-1.17-1.94,2.94,2.94,0,0,0-.8-.43,2.59,2.59,0,0,0,1.39-1.37,2.45,2.45,0,0,0,.13-.55,2.3,2.3,0,0,0-.2-1.21,2,2,0,0,0-.46-.65,1.93,1.93,0,0,0-.46-.35,2.9,2.9,0,0,0-1.43-.19,3.32,3.32,0,0,0-1.32.5,4.72,4.72,0,0,0-.8.59c-.06.06-.17.17-.29.31s-.19.25-.25.33l-.17.06c-.14-.19-.29-.37-.45-.55a4.85,4.85,0,0,0-.71-.65,2.87,2.87,0,0,0-1.33-.57,2.43,2.43,0,0,0-1.81.46,2.14,2.14,0,0,0-.65.81,2.82,2.82,0,0,0,0,1.86,1.72,1.72,0,0,0,.34.53,2,2,0,0,0,1.23.57,1.46,1.46,0,0,0-.57.18,5.79,5.79,0,0,0-1.06.92,2.68,2.68,0,0,0-.53,1.41l.11,16.78a4.51,4.51,0,0,1-.88-.28c-.25-.11-1.07-.49-2.69-2.46-.16-.19-.43-.51-.61-.77a12,12,0,0,1-1.77-5.65V31.72l-.42,0a4,4,0,0,1-.56,1,4.64,4.64,0,0,1-.9.87,10.73,10.73,0,0,1-.42-3.47,10.2,10.2,0,0,1,.25-1.9,10,10,0,0,1,1.82-3.78l.21-7.26h-2.26a8,8,0,0,1,5.76-5.07c-.18-.23-.38-.48-.6-.73s-.32-.34-.48-.5a7.14,7.14,0,0,1,8.78,5.91c.12-.38,1.55-4.88,5.63-5.92a7,7,0,0,1,3.47,0,3.47,3.47,0,0,0-.42.34,4.8,4.8,0,0,0-.93,1.17A6.94,6.94,0,0,1,169.44,14C170.56,15,171.62,16.76,171.17,17.34Z" transform="translate(0.01)"/><polygon class="cls-46" points="158.15 22.45 156.47 25.09 160.02 25.11 158.15 22.45"/><path class="cls-47" d="M147,13.58c-.35-.21.72-4.94,4.42-8.24a14.23,14.23,0,0,1,8.07-3.42,14.7,14.7,0,0,1,7.6,1.23A14.27,14.27,0,0,1,172,7.05a12.61,12.61,0,0,1,2.62,4.63,5.44,5.44,0,0,1,.47,2.77c-.45,2.08-3,3.54-3.78,3.05-.35-.22-.11-.62-.57-1.61a5.75,5.75,0,0,0-1.64-2,4.73,4.73,0,0,0-2-1.21c-.74-.18-1.26,0-1.35-.27-.17-.41,1.11-1.13.94-1.53,0-.05-.09-.17-1-.19a6.39,6.39,0,0,0-3.49.68,7.79,7.79,0,0,0-2.3,1.72c-1.52,1.7-1.66,3.76-2,3.69-.11,0-.14-.31-.17-.5a6.18,6.18,0,0,0-1.55-3A6.11,6.11,0,0,0,153.12,11a13.85,13.85,0,0,0-2-.24c-1.61-.13-1.87,0-1.91.11s.32.54.6.79.48.33.48.43c0,.27-1.08.16-2.19.76C147.33,13.24,147.15,13.64,147,13.58Z" transform="translate(0.01)"/><path class="cls-48" d="M152.56,28.85h11.35v13a6.9,6.9,0,0,1-3.67-5.8V41.9a8,8,0,0,1-2-1.69,8.6,8.6,0,0,1-1.9-4.1v5.8a8.38,8.38,0,0,1-2-1.77,8.49,8.49,0,0,1-1.76-3.91Q152.57,32.54,152.56,28.85Z" transform="translate(0.01)"/></g><g id="corps-2" data-name="corps"><path class="cls-49" d="M173.75,73.5v9.56a7.52,7.52,0,0,1-1.14-.9,9.36,9.36,0,0,1-2.66-5V82a7.29,7.29,0,0,1-1.47-1,7.92,7.92,0,0,1-1.3-1.47,8.39,8.39,0,0,1-1.34-3.88l-.22-.06v5.77a10.33,10.33,0,0,1-4.12-6V73.66l-3.71,0-.09,9.36a8.86,8.86,0,0,1-1.8-1.6,9.17,9.17,0,0,1-2-4.23V82a6.93,6.93,0,0,1-1.82-1.2,7.93,7.93,0,0,1-2.39-5.18l-.1,5.61A7.07,7.07,0,0,1,145.46,77v-.9l23.92-30.87.1-14.45a8.15,8.15,0,0,1,2.24,2.71l.45-.09a8.58,8.58,0,0,0-2.69-9.9l0-6.17h1.77l3.86-3.94.21.89.05.39,0,20.37a3.05,3.05,0,0,1,.76-.29,3.7,3.7,0,0,1,.87-.11,8.19,8.19,0,0,1,1,0,10.48,10.48,0,0,1,1.93.3c.6.18,1.36.4,1.37.71s-1.23.8-1.35.84c-.62.19-1.15.2-1.2.45s0,.25.1.25c.95.13,1.67.6,1.29.44a6.48,6.48,0,0,1,1.16.8c2.68,2.44,2.2,4,2.28,4.29l-2.2-1.21,0,20.8a10.63,10.63,0,0,1-1.85-1.94,10.82,10.82,0,0,1-1.95-4.86c0-.26-.08-.49-.12-.73l0,7.53c0,.09.05.2,0,.23s-1.15-.91-1.44-1.22l-.06-.07A9.07,9.07,0,0,1,174.51,59a13.18,13.18,0,0,1-.84-4.69v7.88a8.48,8.48,0,0,1-1.86-1.4,8.83,8.83,0,0,1-1.94-3,8.19,8.19,0,0,1-.63-2.84v-.51l0,13.88a5.73,5.73,0,0,0,.93,2.8,5.85,5.85,0,0,0,3.35,2.37Z" transform="translate(0.01)"/><path class="cls-45" d="M181.33,62.36l.07,11.22-7.65-.08a5.7,5.7,0,0,1-2.6-1.26,5.76,5.76,0,0,1-1.87-3.55l-.05-14.23a9.27,9.27,0,0,0,2.19,5.94,8.57,8.57,0,0,0,2.24,1.82V54.33c.09,2.12.57,6.47,3.37,7.88.12,0,.23.11.35.15q0-3.77,0-7.53A11.83,11.83,0,0,0,180.87,62Z" transform="translate(0.01)"/><path class="cls-45" d="M170,77.19A9.34,9.34,0,0,0,172,81.53a8.62,8.62,0,0,0,1.72,1.53l.08,6.2a5.41,5.41,0,0,0,.23,1.06,5.63,5.63,0,0,0,.38.91c.3.43.61.85.95,1.26a14.33,14.33,0,0,0,1.15,1.19c.29.21.6.42,1,.63a13.93,13.93,0,0,0,1.72.88,5.9,5.9,0,0,0,2,.32H141.7V91.19a4.17,4.17,0,0,1,2.06-2l1.7,0V77a7.06,7.06,0,0,0,2.13,3.09,6.83,6.83,0,0,0,2,1.14l.1-5.61a7.57,7.57,0,0,0,2,4.8A7.13,7.13,0,0,0,153.9,82V77.23a9.17,9.17,0,0,0,2,4.23,8.86,8.86,0,0,0,1.8,1.6l.07,7.49a4.65,4.65,0,0,1,1.72-1.32l2.06-.1V75.63a11.1,11.1,0,0,0,4.07,5.74V75.6l.22.06a8.24,8.24,0,0,0,2.4,5.14A7.53,7.53,0,0,0,170,82Z" transform="translate(0.01)"/><path class="cls-45" d="M146.52,71.48l1.79-19.08a6.34,6.34,0,0,0-.66-2.67,6.53,6.53,0,0,0-2.46-2.67,6.32,6.32,0,0,0-4.6-.4,7.15,7.15,0,0,0-3.06,2.65,3.93,3.93,0,0,0-.66,1.61l-.15,2.42-5.32,5.28a6,6,0,0,0,4-.09l-3.78,3.84a7.81,7.81,0,0,0,4.1-.1l-.35,5.47a5.53,5.53,0,0,0,1.92,3.15A5.38,5.38,0,0,0,139.65,72Z" transform="translate(0.01)"/><path class="cls-47" d="M137,44.08c0-.43.59-5,1.07-5.76s1.92-.9,2.08-.9l3.43,0a5.53,5.53,0,0,1-1-.25,5.81,5.81,0,0,1-1.82-1,5.26,5.26,0,0,1,1.16-.64,4.29,4.29,0,0,1,1.11-.27l3.69,0a12.64,12.64,0,0,0,2,6,25.53,25.53,0,0,0,2.5,2.44,3.15,3.15,0,0,0,.77.54,2.77,2.77,0,0,0,.63.22l-.06-8.11a8.75,8.75,0,0,0,2.25,4.46,7.69,7.69,0,0,0,1.51,1.22v-5.8a8.55,8.55,0,0,0,3.06,5.3,8.39,8.39,0,0,0,.81.5V36.05a7.83,7.83,0,0,0,2.91,5.38c.25.15.5.29.76.42,0,.83,0,1.65,0,2.49l-1.5,1.14-.05-1.13h-2.56l0,4.86-1.39,1.6-3.49,0,0,4.87-1.42,1.77h-.71v-.29l-2.69,0V62l-2.22,2.5v-.8h-2.39V53.33L136.81,52l.17-8" transform="translate(0.01)"/><path class="cls-47" d="M158.05,22.6l-4.56-1.06c.08-.16-.11.08.14-.15a2.72,2.72,0,0,1,1.4-.63,2.2,2.2,0,0,1,1.21.25,3.65,3.65,0,0,1,1,.58A3.57,3.57,0,0,1,158.05,22.6Z" transform="translate(0.01)"/><path class="cls-47" d="M158.24,22.6,163,21.51c-.09-.16.09,0-.16-.17a2.82,2.82,0,0,0-.68-.43,2.71,2.71,0,0,0-.85-.15,2.18,2.18,0,0,0-1.2.25,3.51,3.51,0,0,0-1,.58A3.64,3.64,0,0,0,158.24,22.6Z" transform="translate(0.01)"/><path class="cls-47" d="M144.82,61.93l.64-8.79-8.53-1.31a14.76,14.76,0,0,0,2.48,9.62l1.87-8.24a11.07,11.07,0,0,0,3.54,8.72Z" transform="translate(0.01)"/></g><g id="Ceinture-2" data-name="Ceinture"><polygon class="cls-50" points="145.47 68.44 145.47 76.11 151.48 68.36 149.38 68.36 149.35 68.23 147.85 68.23 147.84 68.44 145.47 68.44"/><polygon class="cls-50" points="147.85 64.79 147.85 64.47 150.08 62.03 156.42 62.03 151.94 67.81 151.86 63.72 149.37 63.72 149.34 64.79 147.85 64.79"/><polygon class="cls-50" points="153.69 57.16 154.19 57.17 156.77 57.16 156.83 61.45 161.36 55.6 154.91 55.64 153.69 57.16"/><polygon class="cls-50" points="158.43 50.8 159.81 49.11 166.47 49.11 161.62 55.34 161.55 50.84 158.43 50.8"/><polygon class="cls-50" points="163.91 45.61 163.91 44.34 162.41 45.47 162.43 45.61 163.91 45.61"/><path class="cls-50" d="M166.52,48.93l2.86-3.69.06-8.14a11,11,0,0,1-5.55,7.24h2.63Z" transform="translate(0.01)"/><polygon points="159.8 44.34 159.81 49.11 162.43 49.11 162.36 44.34 159.8 44.34"/><polygon points="150.08 57.16 150.1 61.93 152.71 61.93 152.64 57.16 150.08 57.16"/><polygon points="154.19 57.11 154.23 61.93 156.78 61.93 156.77 57.11 154.19 57.11"/><polygon points="154.97 50.84 154.98 55.6 157.59 55.6 157.53 50.84 154.97 50.84"/><polygon points="158.99 50.84 159.01 55.6 161.62 55.6 161.55 50.84 158.99 50.84"/><polygon points="163.91 44.34 163.92 49.11 166.53 49.11 166.47 44.34 163.91 44.34"/><polygon points="149.41 63.67 149.38 68.36 152.04 68.31 151.97 63.67 149.41 63.67"/><polygon points="145.47 63.67 145.49 68.44 148.09 68.44 148.03 63.67 145.47 63.67"/><polygon class="cls-44" points="157.59 50.79 159.07 50.83 159.09 55.64 157.59 55.63 157.59 50.79"/><polygon class="cls-44" points="152.76 57.13 154.19 57.11 154.2 62.03 152.71 62.03 152.76 57.13"/><polygon class="cls-44" points="148 63.67 149.48 63.67 149.5 68.43 148 68.43 148 63.67"/><polygon class="cls-44" points="162.36 44.34 163.89 44.35 163.91 49.1 162.28 49.1 162.36 44.34"/></g><g class="cls-51"><g class="cls-51"><path class="cls-2" d="M53,72.82v9.7a8,8,0,0,1-1.17-.92,9.54,9.54,0,0,1-2.71-5v4.89a7.54,7.54,0,0,1-1.5-1,8.21,8.21,0,0,1-1.32-1.5A8.66,8.66,0,0,1,44.92,75l-.22-.07V80.8a10.52,10.52,0,0,1-4.2-6V73l-3.79,0-.08,9.5a9,9,0,0,1-1.84-1.63,9.23,9.23,0,0,1-2-4.29v4.86a7.44,7.44,0,0,1-1.87-1.22A8,8,0,0,1,28.47,75l-.11,5.69a7.14,7.14,0,0,1-4.2-4.3v-.92L48.53,44.15l.11-14.65a8.16,8.16,0,0,1,1.2,1.15,8.06,8.06,0,0,1,1.07,1.59l.46-.09a8.66,8.66,0,0,0-2.73-10l0-6.26h1.8l3.93-4,.22.9,0,.4,0,20.65a3.94,3.94,0,0,1,.77-.29,3.8,3.8,0,0,1,.89-.11,8.52,8.52,0,0,1,1,0,10,10,0,0,1,2,.31c.62.18,1.39.4,1.4.72s-1.25.81-1.38.85c-.63.19-1.16.2-1.21.45s0,.26.09.26c1,.13,1.7.6,1.32.44a6.91,6.91,0,0,1,1.18.82c2.73,2.47,2.24,4.09,2.33,4.35l-2.25-1.23,0,21.1a10.69,10.69,0,0,1-1.89-2,11,11,0,0,1-2-4.93c0-.26-.08-.5-.13-.74v7.64c0,.09,0,.2,0,.23s-1.18-.92-1.47-1.24l-.06-.07a9.35,9.35,0,0,1-1.41-2.3,13.59,13.59,0,0,1-.86-4.76v8A8.65,8.65,0,0,1,49,56.87,8.42,8.42,0,0,1,48.39,54v-.51l0,14.07a5.79,5.79,0,0,0,1,2.84,6,6,0,0,0,3.41,2.4Z" transform="translate(0.01)"/><path class="cls-3" d="M60.72,61.51l.06,11.39L53,72.82a5.76,5.76,0,0,1-2.65-1.28,5.86,5.86,0,0,1-1.91-3.61l0-14.43a9.35,9.35,0,0,0,2.23,6,8.62,8.62,0,0,0,2.28,1.84v-8c.1,2.14.59,6.55,3.44,8l.36.16q0-3.83,0-7.64a12,12,0,0,0,3.54,7.24l.48.39" transform="translate(0.01)"/><path class="cls-4" d="M24.16,52.35,17.9,59.46,9.72,51.05,20.89,37.34a3.29,3.29,0,0,1,.59-.47,3.16,3.16,0,0,1,.71-.36V36.2a6.74,6.74,0,0,1-1-.26,6.25,6.25,0,0,1-1.86-1,4.47,4.47,0,0,1,1.19-.66A4.34,4.34,0,0,1,21.68,34l3.76,0a12.68,12.68,0,0,0,2.08,6,26.06,26.06,0,0,0,2.55,2.47,3.33,3.33,0,0,0,.78.55,3,3,0,0,0,.64.22L31.43,35a8.91,8.91,0,0,0,2.29,4.53,8.44,8.44,0,0,0,1.55,1.24V34.89a8.6,8.6,0,0,0,3.11,5.38,7,7,0,0,0,.82.51v-6a8,8,0,0,0,3,5.46c.25.15.51.29.77.42,0,.85,0,1.68,0,2.53L41.42,44.4l-.05-1.15H38.76l0,4.93L37.37,49.8l-3.57,0,0,4.95-1.44,1.79h-.72l0-.3-2.73,0v4.9l-2.27,2.54v-.82H24.16Z" transform="translate(0.01)"/><path class="cls-3" d="M49.11,76.55A9.5,9.5,0,0,0,51.23,81,9,9,0,0,0,53,82.52l.08,6.28a5.61,5.61,0,0,0,.23,1.08,4.89,4.89,0,0,0,.39.91,13.86,13.86,0,0,0,1,1.28,13.37,13.37,0,0,0,1.17,1.21c.29.21.61.43,1,.64a14.45,14.45,0,0,0,1.75.9,6.13,6.13,0,0,0,2,.32H20.32V90.76a4.27,4.27,0,0,1,2.1-2.05l1.74,0V76.38a7.11,7.11,0,0,0,2.16,3.13,7.23,7.23,0,0,0,2,1.16L28.47,75a7.58,7.58,0,0,0,2,4.86,7,7,0,0,0,2.3,1.62V76.6a9.23,9.23,0,0,0,2,4.29,9,9,0,0,0,1.84,1.63l.06,7.59a4.81,4.81,0,0,1,1.76-1.34l2.11-.1V75A11.22,11.22,0,0,0,44.7,80.8V74.94l.22.07a8.31,8.31,0,0,0,2.45,5.21,7.79,7.79,0,0,0,1.74,1.22Z" transform="translate(0.01)"/><path class="cls-3" d="M22.53,54.21,10.19,39.15a6.51,6.51,0,0,0-6.08-1.63,6.35,6.35,0,0,0-3.63,3,7.23,7.23,0,0,0-.33,4.09,4,4,0,0,0,.68,1.63l1.61,1.85-.08,7.61a6.17,6.17,0,0,0,2.83-2.9v5.46a8,8,0,0,0,2.91-3l3.65,4.2a5.5,5.5,0,0,0,6.15,0Z" transform="translate(0.01)"/><polygon class="cls-5" points="24.16 67.68 24.16 75.47 30.29 67.6 28.15 67.6 28.11 67.47 26.59 67.47 26.57 67.68 24.16 67.68"/><polygon class="cls-5" points="26.59 63.98 26.59 63.66 28.86 61.18 35.33 61.18 30.76 67.05 30.67 62.9 28.13 62.9 28.11 63.98 26.59 63.98"/><polygon class="cls-5" points="32.54 56.25 33.05 56.25 35.68 56.25 35.74 60.59 40.35 54.66 33.78 54.71 32.54 56.25"/><polygon class="cls-5" points="37.37 49.79 38.78 48.08 45.56 48.08 40.62 54.4 40.56 49.83 37.37 49.79"/><polygon class="cls-5" points="42.95 44.53 42.95 43.24 41.42 44.38 41.44 44.53 42.95 44.53"/><path class="cls-5" d="M45.62,47.9l2.91-3.74.06-8.27a11.15,11.15,0,0,1-5.65,7.35h2.67Z" transform="translate(0.01)"/><polygon class="cls-6" points="38.77 43.24 38.78 48.08 41.44 48.08 41.38 43.24 38.77 43.24"/><polygon class="cls-6" points="28.86 56.25 28.88 61.08 31.54 61.08 31.47 56.25 28.86 56.25"/><polygon class="cls-6" points="33.05 56.19 33.09 61.08 35.69 61.08 35.68 56.19 33.05 56.19"/><polygon class="cls-6" points="33.84 49.83 33.86 54.66 36.52 54.66 36.45 49.83 33.84 49.83"/><polygon class="cls-6" points="37.95 49.83 37.96 54.66 40.62 54.66 40.56 49.83 37.95 49.83"/><polygon class="cls-6" points="42.95 43.24 42.97 48.08 45.63 48.08 45.56 43.24 42.95 43.24"/><polygon class="cls-6" points="28.18 62.85 28.15 67.6 30.86 67.56 30.79 62.85 28.18 62.85"/><polygon class="cls-6" points="24.16 62.85 24.18 67.68 26.84 67.68 26.77 62.85 24.16 62.85"/><polygon class="cls-7" points="36.52 49.78 38.03 49.83 38.04 54.7 36.52 54.69 36.52 49.78"/><polygon class="cls-7" points="31.6 56.21 33.05 56.19 33.06 61.18 31.54 61.18 31.6 56.21"/><polygon class="cls-7" points="26.74 62.85 28.25 62.85 28.26 67.68 26.74 67.68 26.74 62.85"/><polygon class="cls-7" points="41.38 43.24 42.94 43.25 42.95 48.07 41.29 48.07 41.38 43.24"/><path class="cls-8" d="M35.44,23.67H33.59a1.71,1.71,0,0,1-.63-.15,1.68,1.68,0,0,1-1-1.18,2.29,2.29,0,0,1-.1-.9,1.82,1.82,0,0,1,.14-.77,1.64,1.64,0,0,1,.38-.55,2.17,2.17,0,0,1,.73-.54,2.77,2.77,0,0,1,1.66-.13,3,3,0,0,1,1.29.68,6.25,6.25,0,0,1,.45.44,7.43,7.43,0,0,1,.52.62Z" transform="translate(0.01)"/><path class="cls-8" d="M38.76,23.77h1.86a2,2,0,0,0,1.25-.57,2.59,2.59,0,0,0,.55-1.05,3,3,0,0,0,.08-.66,2.21,2.21,0,0,0-.11-.72,2,2,0,0,0-.39-.65,1.91,1.91,0,0,0-.48-.46,2.33,2.33,0,0,0-1.36-.3,3,3,0,0,0-.84.13,3.8,3.8,0,0,0-1.19.67,3.72,3.72,0,0,0-.49.4,7,7,0,0,0-.48.6c.52.83,1.08,1.78,1.6,2.61" transform="translate(0.01)"/><path class="cls-7" d="M31.39,27.53H43V26.16a3.07,3.07,0,0,0-.58-1.35,3.21,3.21,0,0,0-1.42-1l-7.36-.09a3,3,0,0,0-2.2,2.56Z" transform="translate(0.01)"/><path class="cls-3" d="M50.36,15.85c-.17.22-.62.35-1.8,0l0,6.26a8.51,8.51,0,0,1,2.73,10l-.46.08a9,9,0,0,0-1.4-1.94,8.26,8.26,0,0,0-.88-.8L48.54,36a11.67,11.67,0,0,1-2.2,4.48,12.49,12.49,0,0,1-3.28,2.77h-.12V26.15a3.3,3.3,0,0,0-1.19-2,2.74,2.74,0,0,0-.81-.43,2.63,2.63,0,0,0,1.41-1.39,2.17,2.17,0,0,0,.13-.56,2.19,2.19,0,0,0-.67-1.89,1.93,1.93,0,0,0-.46-.35,2.91,2.91,0,0,0-1.46-.2,3.36,3.36,0,0,0-1.34.51,4.43,4.43,0,0,0-.82.6c-.06.06-.17.17-.29.31s-.2.26-.26.34l-.18.06a4.79,4.79,0,0,0-.46-.55,4.51,4.51,0,0,0-.71-.67,3.1,3.1,0,0,0-1.37-.58,2.52,2.52,0,0,0-1.84.47,2.28,2.28,0,0,0-.66.82,2.79,2.79,0,0,0,0,1.89,1.73,1.73,0,0,0,.35.54,2,2,0,0,0,1.25.57,1.47,1.47,0,0,0-.58.19,5.65,5.65,0,0,0-1.08.93,2.76,2.76,0,0,0-.54,1.43l.11,17a4.7,4.7,0,0,1-.9-.28c-.26-.11-1.08-.5-2.74-2.5-.16-.2-.43-.51-.62-.78a12.09,12.09,0,0,1-1.8-5.74v-3.5l-.43,0a4.47,4.47,0,0,1-.57,1,4,4,0,0,1-.92.88,10.68,10.68,0,0,1-.43-3.51,9.74,9.74,0,0,1,.26-1.93A10,10,0,0,1,25.2,23l.21-7.37H23.12A8.1,8.1,0,0,1,29,10.52a9.51,9.51,0,0,0-.61-.74c-.16-.18-.33-.34-.48-.51a7.54,7.54,0,0,1,6,1.14,7.42,7.42,0,0,1,3,4.86c.11-.39,1.57-4.95,5.73-6a7.31,7.31,0,0,1,3.54,0,5,5,0,0,0-.43.34,4.79,4.79,0,0,0-1,1.2,7,7,0,0,1,3.86,1.66c1.14,1,2.22,2.8,1.77,3.38" transform="translate(0.01)"/><polygon class="cls-9" points="37.09 21.04 35.38 23.72 38.99 23.74 37.09 21.04"/><path class="cls-4" d="M25.75,12c-.35-.21.73-5,4.51-8.36A14.49,14.49,0,0,1,38.49.22a15,15,0,0,1,7.74,1.24,14.33,14.33,0,0,1,5,4,12.69,12.69,0,0,1,2.67,4.69,5.56,5.56,0,0,1,.49,2.82c-.47,2.1-3,3.58-3.86,3.09-.36-.22-.11-.63-.58-1.64a5.85,5.85,0,0,0-1.68-2,4.79,4.79,0,0,0-2-1.22c-.75-.18-1.28,0-1.38-.28-.17-.41,1.13-1.15,1-1.55,0-.05-.09-.17-1-.19a6.57,6.57,0,0,0-3.57.69,7.89,7.89,0,0,0-2.34,1.75c-1.54,1.72-1.69,3.8-2,3.74-.11,0-.14-.32-.17-.51a6.22,6.22,0,0,0-1.58-3.09A6.26,6.26,0,0,0,32,9.43a14.4,14.4,0,0,0-2.08-.24c-1.64-.13-1.9,0-1.94.11s.32.55.61.81.49.33.48.43c0,.27-1.1.16-2.23.77-.75.39-.93.79-1.05.73" transform="translate(0.01)"/><path class="cls-10" d="M31.39,27.53H43V40.71a7,7,0,0,1-3.74-5.88v5.94a8.4,8.4,0,0,1-2-1.71,8.61,8.61,0,0,1-1.93-4.17v5.89A8.46,8.46,0,0,1,31.44,35q0-3.73-.05-7.48" transform="translate(0.01)"/></g></g><g class="cls-52"><g class="cls-52"><path class="cls-4" d="M245.44,50.61l0,18.61a9.56,9.56,0,0,1-1.62-1.74,9.8,9.8,0,0,1-1.71-4.35c0-.23-.07-.44-.11-.65l0,6.74c0,.07,0,.17,0,.2s-1-.82-1.25-1.09l-.06-.06a8,8,0,0,1-1.21-2,12.3,12.3,0,0,1-.74-4.2v7.05a7.33,7.33,0,0,1-1.63-1.26,7.73,7.73,0,0,1-1.7-2.71,7.32,7.32,0,0,1-.55-2.54v-.45l0,12.41a5,5,0,0,0,3.75,4.63l.19,0v8.55a6.46,6.46,0,0,1-1-.8,8.44,8.44,0,0,1-2.33-4.45v4.3a6.26,6.26,0,0,1-1.29-.88A7.22,7.22,0,0,1,233,84.59a7.76,7.76,0,0,1-1.18-3.47l-.19-.05v5.16A9.27,9.27,0,0,1,228,80.91V79.33l-3.26,0-.07,8.37a8,8,0,0,1-1.59-1.43,8.42,8.42,0,0,1-1.75-3.78v4.28a6.31,6.31,0,0,1-1.6-1.07,7.16,7.16,0,0,1-2.09-4.63l-.09,5A6.24,6.24,0,0,1,214,82.33V70.12L226.55,52,235,41a6.68,6.68,0,0,1,1,1,7.2,7.2,0,0,1,.92,1.4l.4-.08c1.22-3.15.28-5.25-2.34-7.35l0-7h1.54L239.7,26l.19.8.27.75,0,17.21c1.06-.06,4.72-.16,5.24,1.49a9.29,9.29,0,0,1,.08,1.9c0,1,0,1.87-.07,2.43" transform="translate(0.01)"/><path class="cls-3" d="M245.41,69.22l.06,10-6.71-.07a4.83,4.83,0,0,1-2.27-1.13,5.17,5.17,0,0,1-1.65-3.18l0-12.73a8.38,8.38,0,0,0,1.92,5.32,7.67,7.67,0,0,0,2,1.63V62c.08,1.9.51,5.78,3,7.05l.31.14q0-3.37,0-6.75a10.67,10.67,0,0,0,3,6.4l.4.34" transform="translate(0.01)"/><path class="cls-4" d="M212.68,45.91l2.56-1a10.52,10.52,0,0,0,1.61,5.33A23.07,23.07,0,0,0,219,52.43a3,3,0,0,0,.68.48,3.27,3.27,0,0,0,.55.2q0-3.63-.05-7.26a7.85,7.85,0,0,0,2,4,7.65,7.65,0,0,0,1.32,1.09V45.74a7.73,7.73,0,0,0,2.69,4.74,5.2,5.2,0,0,0,.7.45V45.69a7.09,7.09,0,0,0,2.56,4.81,7,7,0,0,0,.66.37c0,.75,0,1.48,0,2.23l-1.31,1,0-1h-2.25l0,4.35-1.22,1.43-3.06,0,0,4.36L221,64.8h-.62l0-.26-2.35,0v4.32l-1.95,2.24V70.4H214V61.14l-5.38,6.27L201.53,60l9.62-12.09c.15-.16.85-1.32,1-1.44s.37-.51.58-.59l-.49,1" transform="translate(0.01)"/><path class="cls-3" d="M235.43,82.23a6.44,6.44,0,0,0,1.82,3.2,7.58,7.58,0,0,0,1.51,1.12l.08,4.56a3,3,0,0,0,.19.78,3.44,3.44,0,0,0,.34.66,10.58,10.58,0,0,0,.83.93,12.24,12.24,0,0,0,1,.88c.25.15.53.31.83.46a13.46,13.46,0,0,0,1.51.65,6.48,6.48,0,0,0,1.75.24H210.65V92.53a3.48,3.48,0,0,1,1.81-1.48l1.5,0V82.1a5.14,5.14,0,0,0,1.86,2.27,6.16,6.16,0,0,0,1.75.84l.1-4.12a5.09,5.09,0,0,0,1.71,3.53,6.47,6.47,0,0,0,2,1.17V82.27a6.41,6.41,0,0,0,1.75,3.1,7.46,7.46,0,0,0,1.59,1.18l.05,5.51a4.17,4.17,0,0,1,1.51-1l1.82-.07V81.09a8.3,8.3,0,0,0,3.56,4.22V81.07l.19,0a5.66,5.66,0,0,0,2.11,3.78,6.57,6.57,0,0,0,1.5.88Z" transform="translate(0.01)"/><path class="cls-3" d="M212,63.44l-9.66-12.82a5.11,5.11,0,0,0-1.86-1.24,4.8,4.8,0,0,0-2.9-.15,5.18,5.18,0,0,0-2.84,2.54,6.75,6.75,0,0,0-.26,3.48,3.74,3.74,0,0,0,.54,1.39l1.26,1.57-.07,6.47a5,5,0,0,0,2.22-2.46v4.65a6.56,6.56,0,0,0,2.27-2.54l2.86,3.57a4.2,4.2,0,0,0,2.86.78,4.15,4.15,0,0,0,2-.78Z" transform="translate(0.01)"/><path class="cls-8" d="M223.85,37.47h-1.59a1.66,1.66,0,0,1-.54-.14,1.64,1.64,0,0,1-.53-.37,2,2,0,0,1-.37-.69,2.22,2.22,0,0,1-.08-.81,2.57,2.57,0,0,1,.37-1.24,2,2,0,0,1,.67-.47,2.48,2.48,0,0,1,.88-.26,2.4,2.4,0,0,1,.64.16,2.53,2.53,0,0,1,1,.63,4.89,4.89,0,0,1,.39.4,6.12,6.12,0,0,1,.45.56Z" transform="translate(0.01)"/><path class="cls-8" d="M226.71,37.51h1.6a1.67,1.67,0,0,0,1.08-.51,2.4,2.4,0,0,0,.54-1.54,2.09,2.09,0,0,0,0-.66,2,2,0,0,0-.43-.57,1.64,1.64,0,0,0-.42-.41,1.85,1.85,0,0,0-1.17-.27,2.57,2.57,0,0,0-.72.11,3.39,3.39,0,0,0-1,.6,3.7,3.7,0,0,0-.42.37,5.39,5.39,0,0,0-.47.6c.44.75,1,1.53,1.43,2.28" transform="translate(0.01)"/><path class="cls-7" d="M220.36,40.51h10V39.37a2.65,2.65,0,0,0-.51-1.12,2.77,2.77,0,0,0-1.22-.87l-6.34-.07a2.53,2.53,0,0,0-1.89,2.12Z" transform="translate(0.01)"/><path class="cls-3" d="M236.69,30.84c-.15.18-.54.29-1.55,0l0,5.18a6.87,6.87,0,0,1,2.35,8.31l-.4.07a7,7,0,0,0-1.2-1.61,6.78,6.78,0,0,0-.76-.66l0,5.37a9.41,9.41,0,0,1-1.89,3.71,10.82,10.82,0,0,1-2.82,2.3h-.1V39.36a2.77,2.77,0,0,0-1-1.63,2.9,2.9,0,0,0-.7-.36,2.19,2.19,0,0,0,1.22-1.15,1.72,1.72,0,0,0,.11-.46,2,2,0,0,0-.09-1,1.9,1.9,0,0,0-.39-.55,1.79,1.79,0,0,0-.44-.34,2.79,2.79,0,0,0-1.3-.24,3.32,3.32,0,0,0-1.21.47,4.23,4.23,0,0,0-.66.61,3.37,3.37,0,0,0-.25.26,1.85,1.85,0,0,0-.22.28l-.16,0a5.58,5.58,0,0,0-.39-.46,4.34,4.34,0,0,0-.58-.63,2.56,2.56,0,0,0-1.39-.62,2,2,0,0,0-1.48.48,2.23,2.23,0,0,0-.47,2.37,1.37,1.37,0,0,0,.3.45,1.77,1.77,0,0,0,1.07.47,1.23,1.23,0,0,0-.49.16,4.88,4.88,0,0,0-.93.77,2.22,2.22,0,0,0-.47,1.18l.1,14.09a4.25,4.25,0,0,1-.77-.23,6.65,6.65,0,0,1-2.36-2.07,8.09,8.09,0,0,1-.54-.65,9.68,9.68,0,0,1-1.55-4.74v-2.9l-.37,0a3.3,3.3,0,0,1-.49.83,3.67,3.67,0,0,1-.79.73,8.67,8.67,0,0,1-.15-4.51,8.27,8.27,0,0,1,1.6-3.17l.18-6.1h-2a6.93,6.93,0,0,1,5-4.26c-.15-.19-.33-.4-.53-.61s-.27-.29-.41-.42a6.69,6.69,0,0,1,5.13.94,6.11,6.11,0,0,1,2.57,4c.1-.31,1.36-4.09,4.93-5a6.42,6.42,0,0,1,3.05,0,3.27,3.27,0,0,0-.37.28,4,4,0,0,0-.81,1A6.08,6.08,0,0,1,235.16,28c1,.87,1.92,2.31,1.53,2.8" transform="translate(0.01)"/><polygon class="cls-9" points="225.27 35.13 223.8 37.35 226.9 37.37 225.27 35.13"/><path class="cls-4" d="M215.51,27.68c-.3-.17.63-4.15,3.88-6.92a12.7,12.7,0,0,1,7.08-2.87,13.36,13.36,0,0,1,6.67,1,12.43,12.43,0,0,1,4.31,3.28,10.42,10.42,0,0,1,2.29,3.88,4.37,4.37,0,0,1,.42,2.33c-.4,1.75-2.6,3-3.32,2.56-.31-.18-.1-.52-.5-1.35A4.72,4.72,0,0,0,234.9,28a4,4,0,0,0-1.73-1c-.65-.15-1.11,0-1.19-.24s1-.95.83-1.28c0,0-.08-.14-.9-.16a5.79,5.79,0,0,0-3.07.58,6.72,6.72,0,0,0-2,1.44c-1.32,1.42-1.45,3.15-1.73,3.1-.1,0-.12-.26-.15-.42a5.11,5.11,0,0,0-1.35-2.56,5.42,5.42,0,0,0-2.73-1.88,12,12,0,0,0-1.79-.2c-1.42-.11-1.64,0-1.68.09s.29.46.53.67.42.28.41.36-.94.13-1.92.64c-.64.32-.79.65-.9.6" transform="translate(0.01)"/><path class="cls-10" d="M220.36,40.51h10V51.42a5.74,5.74,0,0,1-3.22-4.87v4.92a7,7,0,0,1-3.39-4.87v4.87A7.32,7.32,0,0,1,222,50a7,7,0,0,1-1.55-3.29c0-2.06,0-4.13,0-6.19" transform="translate(0.01)"/></g><g class="cls-52"><path class="cls-53" d="M205.59,54.89,212,63.44l1.93-2.3V74.33H234.8V58.65h10.63l0-12.15,0-.16c-.25-1-1.56-1.27-2-1.36a14,14,0,0,0-1.6-.2,13.44,13.44,0,0,0-1.69,0A19,19,0,0,1,236,50.72a16,16,0,0,1-4.2,2.9,25.28,25.28,0,0,1-7.36.78c-.58,0-1.14-.07-1.68-.13a4.36,4.36,0,0,1-1.2-.41,4.73,4.73,0,0,1-1.09-.79l0,.44a8,8,0,0,1-1.74-1,10.08,10.08,0,0,1-2.85-3.64,12.39,12.39,0,0,1-.48-1.86,11.4,11.4,0,0,1-.15-2.05l-2.48,1Z" transform="translate(0.01)"/><path class="cls-53" d="M230.91,65.14c0,3.94-2.76,7.13-6.16,7.13s-6.17-3.19-6.17-7.13S221.34,58,224.75,58s6.16,3.2,6.16,7.13" transform="translate(0.01)"/><path class="cls-54" d="M230.91,65.14c0,3.94-2.76,7.13-6.16,7.13s-6.17-3.19-6.17-7.13S221.34,58,224.75,58,230.91,61.21,230.91,65.14Z" transform="translate(0.01)"/><line class="cls-54" x1="222.83" y1="62.01" x2="222.81" y2="64.97"/><path class="cls-54" d="M221.6,67.55a3.57,3.57,0,0,0,3.27,2.09,3.89,3.89,0,0,0,3-2.09" transform="translate(0.01)"/><line class="cls-54" x1="226.65" y1="61.93" x2="226.62" y2="64.89"/></g></g></g></g></svg>