<svg width="526" height="61" viewBox="0 0 526 61" fill="none" xmlns="http://www.w3.org/2000/svg">
<rect x="480.683" y="26.183" width="21" height="21" transform="rotate(-30 480.683 26.183)" stroke="#F60909"/>
<path d="M472.683 23.683L500.396 7.68301L516.396 35.3958L488.683 51.3958L472.683 23.683Z" stroke="#8A0707"/>
<path d="M472.683 23.683L500.396 7.68301L516.396 35.3958L488.683 51.3958L472.683 23.683Z" stroke="#8A0707"/>
<path d="M465.683 22.183L502.922 0.683013L524.422 37.9221L487.183 59.4221L465.683 22.183Z" stroke="#8A0707"/>
<path d="M465.683 22.183L502.922 0.683013L524.422 37.9221L487.183 59.4221L465.683 22.183Z" stroke="#2E0000"/>
<path d="M0.339746 29.999L9 38.6593L17.6603 29.999L9 21.3388L0.339746 29.999ZM9 31.499H128V28.499H9V31.499Z" fill="rgb(247, 247, 247)"/>
<path d="M119.34 29.999L128 38.6593L136.66 29.999L128 21.3388L119.34 29.999ZM128 31.499H247V28.499H128V31.499Z" fill="rgb(247, 247, 247)"/>
<path d="M364.34 30.3198L373 38.9801L381.66 30.3198L373 21.6596L364.34 30.3198ZM373 31.8198H494.5V28.8198H373V31.8198Z" fill="rgb(247, 247, 247)"/>
<path d="M486.34 30.3198L495 38.9801L503.66 30.3198L495 21.6596L486.34 30.3198ZM495 31.8198H496V28.8198H495V31.8198Z" fill="rgb(247, 247, 247)"/>
<path d="M119.34 29.999L128 38.6593L136.66 29.999L128 21.3388L119.34 29.999ZM128 31.499H250.5V28.499H128V31.499Z" fill="rgb(247, 247, 247)"/>
<path d="M242.34 29.9995L251 38.6598L259.66 29.9995L251 21.3393L242.34 29.9995ZM251 31.4995H373.5V28.4995H251V31.4995Z" fill="rgb(247, 247, 247)"/>
</svg>
