<svg width="504" height="61" viewBox="0 0 504 61" fill="none" xmlns="http://www.w3.org/2000/svg">
<path d="M0.339746 29.9995L9 38.6598L17.6603 29.9995L9 21.3393L0.339746 29.9995ZM9 31.4995H128V28.4995H9V31.4995Z" fill="white"/>
<path d="M119.34 29.9995L128 38.6598L136.66 29.9995L128 21.3393L119.34 29.9995ZM128 31.4995H247V28.4995H128V31.4995Z" fill="white"/>
<path d="M364.34 30.3203L373 38.9806L381.66 30.3203L373 21.6601L364.34 30.3203ZM373 31.8203H494.5V28.8203H373V31.8203Z" fill="white"/>
<path d="M486.34 30.3203L495 38.9806L503.66 30.3203L495 21.6601L486.34 30.3203ZM495 31.8203H496V28.8203H495V31.8203Z" fill="white"/>
<path d="M119.34 29.9995L128 38.6598L136.66 29.9995L128 21.3393L119.34 29.9995ZM128 31.4995H250.5V28.4995H128V31.4995Z" fill="white"/>
<path d="M242.34 30L251 38.6603L259.66 30L251 21.3397L242.34 30ZM251 31.5H373.5V28.5H251V31.5Z" fill="white"/>
<rect x="113.683" y="26.183" width="21" height="21" transform="rotate(-30 113.683 26.183)" stroke="#F60909"/>
<path d="M105.683 23.683L133.396 7.68301L149.396 35.3958L121.683 51.3958L105.683 23.683Z" stroke="#8A0707"/>
<path d="M105.683 23.683L133.396 7.68301L149.396 35.3958L121.683 51.3958L105.683 23.683Z" stroke="#8A0707"/>
<path d="M98.683 22.183L135.922 0.682915L157.422 37.9221L120.183 59.4222L98.683 22.183Z" stroke="#8A0707"/>
<path d="M98.683 22.183L135.922 0.682915L157.422 37.9221L120.183 59.4222L98.683 22.183Z" stroke="#2E0000"/>
</svg>
