<svg width="635" height="33" viewBox="0 0 635 33" fill="none" xmlns="http://www.w3.org/2000/svg">
<path d="M17.4791 0.5L0.580627 32H14.4088L24.7916 9.61719L35.1509 32H48.9791L32.0806 0.5H17.4791ZM80.7866 16.625C80.8569 21.8047 76.5912 22.6953 71.5756 22.7656C66.5366 22.6953 62.2944 21.8047 62.3412 16.625V0.476562H50.06V17.3984C50.0131 29.3047 59.7631 32.7266 71.5756 32.75C83.3881 32.7266 93.1381 29.3047 93.0912 17.3984V0.476562H80.7866V16.625ZM101.742 0.5V32H114.024V24.3125H124.992L130.922 32H144L137.133 23.1641C139.196 22.2031 140.86 20.75 142.102 18.8516C143.367 16.9297 144 14.7734 144 12.4062C144.094 5.89062 138.586 0.429688 132.094 0.5H101.742ZM129 9.71094C130.5 9.71094 131.696 10.9062 131.696 12.4062C131.696 13.1328 131.438 13.7656 130.899 14.3047C130.383 14.8203 129.75 15.0781 129 15.0781H114.024V9.71094H129ZM150.941 0.476562V31.9766H163.222V0.476562H150.941ZM184.178 0.5L167.279 32H181.107L191.49 9.61719L201.85 32H215.678L198.779 0.5H184.178ZM250.485 17.1641L236.657 0.476562H219.759V31.9766H232.04V12.7344L248.962 31.9766H262.79V0.476562H250.485V17.1641ZM273.082 32.0234H309.949V23.9375H285.363V19.9062H309.949V12.6172H285.363V8.58594H309.949V0.523438H273.082V32.0234ZM314.03 11.6328V20.8438H348.6V11.6328H314.03ZM352.681 31.9766H364.963V15.1719L377.267 31.9766H383.408L395.713 15.1719V31.9766H407.994V0.476562H392.642L380.338 16.2266L368.056 0.476562H352.681V31.9766ZM418.286 0.476562V31.9766H430.567V0.476562H418.286ZM440.203 0.5V32H452.484V24.3125H463.453L469.382 32H482.46L475.593 23.1641C477.656 22.2031 479.32 20.75 480.562 18.8516C481.828 16.9297 482.46 14.7734 482.46 12.4062C482.554 5.89062 477.046 0.429688 470.554 0.5H440.203ZM467.46 9.71094C468.96 9.71094 470.156 10.9062 470.156 12.4062C470.156 13.1328 469.898 13.7656 469.359 14.3047C468.843 14.8203 468.21 15.0781 467.46 15.0781H452.484V9.71094H467.46ZM503.44 0.5L486.541 32H500.369L510.752 9.61719L521.112 32H534.94L518.041 0.5H503.44ZM569.747 17.1641L555.919 0.476562H539.021V31.9766H551.302V12.7344L568.224 31.9766H582.052V0.476562H569.747V17.1641ZM603.008 0.5L586.109 32H599.938L610.32 9.61719L620.68 32H634.508L617.609 0.5H603.008Z" fill="rgb(247, 247, 247)"/>
</svg>
