<svg xmlns="http://www.w3.org/2000/svg" xmlns:xlink="http://www.w3.org/1999/xlink" viewBox="0 0 293.94 280"><defs><style>.cls-1,.cls-12,.cls-53{fill:none;}.cls-2{fill:#fee2bb;}.cls-3{fill:#492b1b;}.cls-4{fill:#b17f4a;}.cls-5{fill:#432918;}.cls-6{fill:#7b6a58;}.cls-7{fill:#fff;}.cls-8{fill:#634e42;}.cls-9{fill:#683c11;}.cls-10{fill:#1d1d1b;}.cls-11{fill:#ca9e67;}.cls-12{stroke:#1d1d1b;}.cls-12,.cls-53{stroke-miterlimit:10;}.cls-13{fill:#da8d51;}.cls-14{fill:#eab885;}.cls-15{fill:#383737;}.cls-16{fill:#7f4a42;}.cls-17{fill:#f8e4d7;}.cls-18{fill:#f9c49d;}.cls-19{fill:#e84a40;}.cls-20{fill:#7e4841;}.cls-21{fill:#7f4844;}.cls-22{fill:#b17f49;}.cls-23{fill:#fbd9c0;}.cls-24{fill:#f5ba92;opacity:0.7;}.cls-25{fill:#4c2a15;}.cls-26{fill:#ef993b;}.cls-27{fill:#911a17;}.cls-28{fill:#a11f16;opacity:0.11;}.cls-29{fill:#211f21;}.cls-30{fill:#534c53;}.cls-31{fill:#3a3639;}.cls-32{fill:#0c0b0e;}.cls-33{fill:#dcaf3f;}.cls-34{fill:#14a238;}.cls-35{fill:#984e98;}.cls-36{fill:#f9d84f;}.cls-37{fill:#fad5b5;}.cls-38{fill:#c99d66;}.cls-39{fill:#303031;}.cls-40{fill:#f8c7ae;}.cls-41{fill:#5e5f5f;}.cls-42{fill:#bbb;}.cls-43{fill:#acacac;}.cls-44{fill:#777;}.cls-45{fill:#e2e2e2;}.cls-46{fill:#d0d0d0;}.cls-47{fill:#5a5a5a;}.cls-48{fill:#cdcdcd;}.cls-49{fill:#929292;}.cls-50{clip-path:url(#clip-path);}.cls-51{clip-path:url(#clip-path-3);}.cls-52{fill:#7b220f;}.cls-53{stroke:#fffbfa;stroke-width:0.48px;}</style><clipPath id="clip-path"><rect class="cls-1" x="14.27" y="24.31" width="63" height="95"/></clipPath><clipPath id="clip-path-3"><rect class="cls-1" x="207.44" y="32.96" width="54.21" height="95"/></clipPath></defs><g id="Calque_2" data-name="Calque 2"><g id="Calque_2-2" data-name="Calque 2"><rect class="cls-2" width="293.94" height="280"/><g id="corps"><path class="cls-3" d="M128.67,97.29v9.76a8.52,8.52,0,0,1-1.16-.92,9.57,9.57,0,0,1-2.72-5.08V106a7.59,7.59,0,0,1-1.5-1,7.85,7.85,0,0,1-1.32-1.5,8.54,8.54,0,0,1-1.37-4l-.23-.07v5.9a10.64,10.64,0,0,1-4.2-6.07v-1.8l-3.79,0-.09,9.55a9.06,9.06,0,0,1-3.87-6V106a6.89,6.89,0,0,1-1.87-1.23,8.06,8.06,0,0,1-2.43-5.28L104,105.2a7.14,7.14,0,0,1-4.2-4.33V100l24.4-31.5.11-14.74a8.23,8.23,0,0,1,1.2,1.16,8.64,8.64,0,0,1,1.08,1.6l.46-.09a8.75,8.75,0,0,0-2.74-10.09l0-6.3h1.8L130,36l.22.92,0,.39,0,20.78a3.66,3.66,0,0,1,.78-.29,3.8,3.8,0,0,1,.89-.11,8.52,8.52,0,0,1,1,0,10,10,0,0,1,2,.31c.62.18,1.39.4,1.4.72s-1.25.82-1.38.85c-.63.2-1.16.21-1.21.47,0,.1,0,.25.09.25,1,.13,1.7.61,1.32.45a6.38,6.38,0,0,1,1.18.82c2.73,2.49,2.25,4.12,2.33,4.37l-2.25-1.23,0,21.23a10.8,10.8,0,0,1-1.89-2,11,11,0,0,1-2-5c0-.26-.09-.49-.13-.74l0,7.69c0,.09.05.19,0,.23s-1.17-.93-1.46-1.25l-.06-.06a9.51,9.51,0,0,1-1.42-2.32,13.75,13.75,0,0,1-.86-4.79v8a8.48,8.48,0,0,1-1.89-1.43,8.85,8.85,0,0,1-2-3.09,8.48,8.48,0,0,1-.64-2.9v-.51l0,14.15a5.83,5.83,0,0,0,1,2.86,6,6,0,0,0,3.41,2.42Z"/><path class="cls-4" d="M136.41,85.92l.07,11.45-7.81-.08A5.76,5.76,0,0,1,126,96a5.88,5.88,0,0,1-1.91-3.63l-.06-14.52a9.56,9.56,0,0,0,2.24,6.07,8.66,8.66,0,0,0,2.28,1.85v-8c.1,2.16.59,6.6,3.45,8l.35.16q0-3.86,0-7.69a12.14,12.14,0,0,0,3.54,7.29Z"/><path class="cls-5" d="M99.81,76.71l-6.26,7.15-6.13-6.32L96.54,61.6a3.44,3.44,0,0,1,.59-.48,4.63,4.63,0,0,1,.7-.36l0-.31a5.55,5.55,0,0,1-1-.26,6,6,0,0,1-1.85-1,5.25,5.25,0,0,1,1.18-.66,5,5,0,0,1,1.13-.27l3.77,0a12.8,12.8,0,0,0,2.08,6.08,26.19,26.19,0,0,0,2.55,2.5,3.26,3.26,0,0,0,.79.54,2.87,2.87,0,0,0,.64.23l-.06-8.28a8.86,8.86,0,0,0,2.29,4.55,8.41,8.41,0,0,0,1.55,1.25V59.14a8.68,8.68,0,0,0,3.12,5.41,7,7,0,0,0,.82.51v-6a8,8,0,0,0,3,5.49q.38.23.78.42c0,.85,0,1.69,0,2.55l-1.53,1.16,0-1.15h-2.61v5L113,74.14l-3.56,0,0,5L108,80.88h-.73v-.29h-2.74v4.93l-2.27,2.56v-.82H99.81Z"/><path class="cls-4" d="M124.79,101.05a9.61,9.61,0,0,0,2.12,4.44,9.33,9.33,0,0,0,1.76,1.56l.08,6.33a5.27,5.27,0,0,0,.63,2,13.58,13.58,0,0,0,1,1.29,13.26,13.26,0,0,0,1.16,1.21c.3.22.62.43,1,.64a14,14,0,0,0,1.76.91,6.45,6.45,0,0,0,2,.33H96v-4.41a4.25,4.25,0,0,1,2.1-2.06l1.75,0V100.87A7.11,7.11,0,0,0,102,104a6.81,6.81,0,0,0,2,1.17l.11-5.72a7.64,7.64,0,0,0,2,4.89,7.34,7.34,0,0,0,2.31,1.63V101.1a9.06,9.06,0,0,0,3.87,6l.07,7.64a4.82,4.82,0,0,1,1.75-1.35l2.11-.1V99.47a11.39,11.39,0,0,0,4.15,5.86v-5.9l.23.07a8.33,8.33,0,0,0,2.45,5.24,7.83,7.83,0,0,0,1.74,1.23Z"/></g><g id="Ceinture"><polygon class="cls-6" points="99.81 92.13 99.81 99.96 105.94 92.04 103.8 92.04 103.76 91.92 102.24 91.92 102.22 92.13 99.81 92.13"/><polygon class="cls-6" points="102.24 88.41 102.24 88.08 104.51 85.58 110.98 85.58 106.41 91.49 106.32 87.32 103.78 87.32 103.75 88.41 102.24 88.41"/><polygon class="cls-6" points="108.19 80.62 108.7 80.63 111.34 80.62 111.4 85 116.02 79.03 109.44 79.07 108.19 80.62"/><polygon class="cls-6" points="113.03 74.13 114.44 72.4 121.23 72.4 116.28 78.77 116.22 74.17 113.03 74.13"/><polygon class="cls-6" points="118.62 68.83 118.62 67.54 117.09 68.69 117.11 68.83 118.62 68.83"/><path class="cls-6" d="M121.3,72.22l2.91-3.76.06-8.31a11.24,11.24,0,0,1-5.66,7.39h2.68Z"/><polygon class="cls-7" points="114.43 67.54 114.44 72.4 117.11 72.4 117.04 67.54 114.43 67.54"/><polygon class="cls-7" points="104.51 80.62 104.53 85.49 107.19 85.49 107.12 80.62 104.51 80.62"/><polygon class="cls-7" points="108.7 80.57 108.74 85.49 111.35 85.49 111.34 80.57 108.7 80.57"/><polygon class="cls-7" points="109.5 74.17 109.51 79.03 112.18 79.03 112.11 74.17 109.5 74.17"/><polygon class="cls-7" points="113.61 74.17 113.62 79.03 116.28 79.03 116.22 74.17 113.61 74.17"/><polygon class="cls-7" points="118.62 67.54 118.63 72.4 121.3 72.4 121.23 67.54 118.62 67.54"/><polygon class="cls-7" points="103.83 87.26 103.8 92.04 106.51 92 106.44 87.26 103.83 87.26"/><polygon class="cls-7" points="99.81 87.26 99.82 92.13 102.48 92.13 102.42 87.26 99.81 87.26"/><polygon class="cls-8" points="112.18 74.12 113.69 74.16 113.7 79.06 112.18 79.05 112.18 74.12"/><polygon class="cls-8" points="107.25 80.58 108.7 80.57 108.72 85.58 107.19 85.58 107.25 80.58"/><polygon class="cls-8" points="102.39 87.27 103.9 87.27 103.91 92.12 102.39 92.12 102.39 87.27"/><polygon class="cls-8" points="117.04 67.54 118.6 67.54 118.62 72.4 116.96 72.4 117.04 67.54"/></g><g id="yeux"><path class="cls-9" d="M111.1,47.85h-1.85a2.23,2.23,0,0,1-.63-.15,2,2,0,0,1-.62-.42,2.25,2.25,0,0,1-.43-.77,2.32,2.32,0,0,1-.09-.91,1.85,1.85,0,0,1,.14-.77,1.79,1.79,0,0,1,.38-.56,2.17,2.17,0,0,1,.73-.54,2.42,2.42,0,0,1,1-.2,2.81,2.81,0,0,1,.71.07,3,3,0,0,1,1.29.69,3.81,3.81,0,0,1,.46.44c.18.2.35.41.51.62Z"/><path class="cls-9" d="M114.43,48h1.86a2,2,0,0,0,1.25-.57,2.69,2.69,0,0,0,.55-1.06,3,3,0,0,0,.08-.67,2,2,0,0,0-.5-1.38,2,2,0,0,0-.49-.46,2.3,2.3,0,0,0-1.36-.3,2.93,2.93,0,0,0-.83.13,3.77,3.77,0,0,0-1.19.67,3.23,3.23,0,0,0-.49.41,5.58,5.58,0,0,0-.49.6Z"/></g><g id="visage"><path class="cls-8" d="M107,51.73h11.59V50.35A3.25,3.25,0,0,0,118,49a3.29,3.29,0,0,0-1.42-1.05l-7.37-.09A3,3,0,0,0,107,50.42Z"/><path class="cls-4" d="M126,40c-.17.22-.62.35-1.8,0l0,6.3A8.58,8.58,0,0,1,127,56.38l-.46.08a9,9,0,0,0-1.4-2,11.13,11.13,0,0,0-.88-.8l0,6.53A11.67,11.67,0,0,1,122,64.74a12.56,12.56,0,0,1-3.28,2.79h-.11V50.34a3.37,3.37,0,0,0-1.2-2,2.74,2.74,0,0,0-.81-.43,2.65,2.65,0,0,0,1.41-1.4,2.19,2.19,0,0,0,.14-.56,2.38,2.38,0,0,0-.2-1.24,2.28,2.28,0,0,0-.48-.67,1.8,1.8,0,0,0-.47-.35,3,3,0,0,0-1.45-.2,3.33,3.33,0,0,0-1.35.52,4.79,4.79,0,0,0-.82.6c-.06.06-.17.17-.29.31a2.78,2.78,0,0,0-.25.34l-.19.07a6.26,6.26,0,0,0-.45-.57,5.64,5.64,0,0,0-.72-.66,3,3,0,0,0-1.37-.59,2.52,2.52,0,0,0-1.84.47,2.32,2.32,0,0,0-.66.83,2.82,2.82,0,0,0,0,1.9,1.73,1.73,0,0,0,.35.54,2,2,0,0,0,1.25.58,1.33,1.33,0,0,0-.58.19,5.36,5.36,0,0,0-1.08.94,2.65,2.65,0,0,0-.54,1.43l.11,17.12a4.08,4.08,0,0,1-.9-.28c-.26-.11-1.09-.5-2.75-2.51-.16-.2-.43-.52-.62-.79a12.2,12.2,0,0,1-1.8-5.77V54.66l-.43,0a4.37,4.37,0,0,1-.57,1,4.27,4.27,0,0,1-.92.88A10.79,10.79,0,0,1,98.74,53,10.62,10.62,0,0,1,99,51.06a10.32,10.32,0,0,1,1.86-3.86l.21-7.41h-2.3a8.16,8.16,0,0,1,5.87-5.17c-.18-.24-.38-.49-.61-.75l-.48-.51a7.29,7.29,0,0,1,9,6c.12-.39,1.58-5,5.74-6a7.31,7.31,0,0,1,3.54,0,4.7,4.7,0,0,0-.43.35,4.8,4.8,0,0,0-.94,1.2,7,7,0,0,1,3.86,1.67C125.41,37.64,126.49,39.39,126,40Z"/><polygon class="cls-10" points="112.75 45.2 111.04 47.9 114.65 47.92 112.75 45.2"/><path class="cls-5" d="M101.4,36.15c-.35-.21.73-5,4.52-8.41a14.52,14.52,0,0,1,8.23-3.49,15,15,0,0,1,7.76,1.25,14.42,14.42,0,0,1,5,4,12.81,12.81,0,0,1,2.68,4.72,5.48,5.48,0,0,1,.48,2.83c-.47,2.12-3,3.6-3.86,3.11-.36-.22-.11-.64-.58-1.65a5.89,5.89,0,0,0-1.68-2,4.77,4.77,0,0,0-2-1.23c-.76-.18-1.29,0-1.38-.28-.18-.42,1.13-1.15,1-1.56,0,0-.1-.17-1-.19a6.5,6.5,0,0,0-3.57.7,8.06,8.06,0,0,0-2.35,1.75c-1.54,1.73-1.69,3.83-2,3.77-.12,0-.15-.32-.18-.52a6.37,6.37,0,0,0-1.57-3.11,6.34,6.34,0,0,0-3.18-2.28,14.56,14.56,0,0,0-2.08-.24c-1.65-.13-1.91,0-2,.11s.33.56.61.81.49.34.49.44c0,.27-1.1.16-2.24.77C101.71,35.8,101.52,36.21,101.4,36.15Z"/><path class="cls-11" d="M107,51.73h11.59V65a7,7,0,0,1-3.75-5.92v6a8.49,8.49,0,0,1-3.94-5.91v5.92a8.44,8.44,0,0,1-3.84-5.8Z"/></g><g id="bras-mouvant"><path class="cls-4" d="M98.27,76.86l7.8,13.58,1.08,1.89a3.09,3.09,0,0,1,.2,2,2.55,2.55,0,0,1-1.86,1.63,10.22,10.22,0,0,1-5.12-.59,18.35,18.35,0,0,1-4.45-2.7,6.62,6.62,0,0,1-1.32-1.41l-1-1.94-8-5.23a11.17,11.17,0,0,1,4.58.86l-5.7-3.79a14.61,14.61,0,0,1,4.72.88l-2.36-4.4A1.94,1.94,0,0,1,87.9,75.5a4.93,4.93,0,0,1,2.33-.39Z"/></g><path class="cls-4" d="M114,42.63a4.48,4.48,0,0,0,2.12,2.83,4.41,4.41,0,0,0,4.71-.48"/><path class="cls-4" d="M111.42,42.31a4.84,4.84,0,0,1-2.43,3.3,4.9,4.9,0,0,1-4.17.08"/><path class="cls-12" d="M106.48,45.38a4.8,4.8,0,0,0,2.93-.63A4.46,4.46,0,0,0,111,43"/><path class="cls-12" d="M119.2,45.44a4.77,4.77,0,0,1-2.92-.63,4.33,4.33,0,0,1-1.63-1.72"/><path class="cls-13" d="M95.65,195.25c-.24-1.59-.48-4.42-.5-4.61-.19-2.22-.28-4.08-.33-5.39a18.33,18.33,0,0,1,3.56-12,15.78,15.78,0,0,1,2.72-2.71,8,8,0,0,0,2.77,6.11,7.36,7.36,0,0,0,3.78,1.5,7.34,7.34,0,0,0,6.73-7.61,13.26,13.26,0,0,1,3,3.05c1.84,2.64,2.19,5.28,2.78,9.67a35.56,35.56,0,0,1,.38,6.17,33.79,33.79,0,0,1-.81,6.5l-3.24,9.29H99.17A30,30,0,0,1,95.65,195.25Z"/><path class="cls-14" d="M89.65,224.31a4.5,4.5,0,0,0-1.5,1.67,4.3,4.3,0,0,0-.5,2,4.7,4.7,0,0,0,2.89,2.45,4.63,4.63,0,0,0,3.22-.34,3.54,3.54,0,0,0,2.61,2.61A7.3,7.3,0,0,0,99,232a7.64,7.64,0,0,0,1.72-1.11A13.44,13.44,0,0,0,103,232a12.43,12.43,0,0,0,2.45.66,6.26,6.26,0,0,0,2.39,0,6.4,6.4,0,0,0,2.72-1.34,17.47,17.47,0,0,0,11.45.06,4.32,4.32,0,0,0,1.83-1.28,4.08,4.08,0,0,0,.83-1.58,2.31,2.31,0,0,0,1.39.58,2.34,2.34,0,0,0,1.67-.58l-2.56-5a16.23,16.23,0,0,1-9.28-11.29,4.45,4.45,0,0,1-2.61-.94,4.51,4.51,0,0,1-1.44-2.06L108,212l-4.16-2.73a9.22,9.22,0,0,1-4.51,3.23,15.2,15.2,0,0,1-2.33,6A15.49,15.49,0,0,1,89.65,224.31Z"/><polygon class="cls-15" points="105.97 179.97 108.74 179.97 109.13 181.75 107.36 183.64 105.58 181.75 105.97 179.97"/><polygon class="cls-14" points="95.31 199.81 95.66 195.64 99.41 204.63 99.98 208.05 95.31 199.81"/><polygon class="cls-14" points="119.18 196.69 112.95 209.98 117.45 209.98 119.71 200.24 119.18 196.69"/><path class="cls-16" d="M119.71,200c.07,1.51.2,3.07.39,4.67a69.08,69.08,0,0,0,5.05,18.9,15.14,15.14,0,0,1-9.28-11.29l.28-4.5a11.13,11.13,0,0,1,2.28-6.44A9.72,9.72,0,0,1,119.71,200Z"/><path class="cls-16" d="M95.31,199.25A65.84,65.84,0,0,1,93.92,211a66.59,66.59,0,0,1-4.27,13.28A15.17,15.17,0,0,0,95.79,220a15.38,15.38,0,0,0,3.48-7.28l-1.84.11a5.26,5.26,0,0,0,1.33-1.56,5.8,5.8,0,0,0,.51-4.11A15,15,0,0,0,97.43,202,14.43,14.43,0,0,0,95.31,199.25Z"/><path class="cls-17" d="M101,170.91a7.59,7.59,0,0,0,2.19,5.59,7.44,7.44,0,0,0,4.36,2,7.65,7.65,0,0,0,5.12-2.73,7.5,7.5,0,0,0,1.61-4.89,5.37,5.37,0,0,0-1.89-2.44,5.58,5.58,0,0,0-4.34-.78c-.25-.08-3.27-1-5.5.89A5.16,5.16,0,0,0,101,170.91Z"/><path class="cls-18" d="M106.42,167.8l-2-2.17a1,1,0,0,1,1-1.66l2.18.66,2.53-.66a.87.87,0,0,1,.73.22.93.93,0,0,1,0,1.17l-2,2.59Z"/><path class="cls-19" d="M106.66,166.93a7.2,7.2,0,0,0-3-1.56,3,3,0,0,0-.55,1.83,3.15,3.15,0,0,0,1.11,2.23l2.61-1.11h1.67a6.55,6.55,0,0,0,1.61.77,6.09,6.09,0,0,0,1.39.28,5,5,0,0,0,.55-1.78,4.75,4.75,0,0,0-.22-2.05,5.62,5.62,0,0,0-1.94.44,5.54,5.54,0,0,0-1.45.89Z"/><path class="cls-20" d="M114.83,170.88a7.31,7.31,0,0,1,3.43-3.52,7.19,7.19,0,0,1,3.62-.67,13.06,13.06,0,0,1,.33,4.06,12.91,12.91,0,0,1-.78,3.55,5.48,5.48,0,0,1-1.28,1.84A5.39,5.39,0,0,1,119,177a12.27,12.27,0,0,0-4.18-6.08Z"/><path class="cls-21" d="M100.63,170.88a7.26,7.26,0,0,0-3.43-3.52,7.15,7.15,0,0,0-3.61-.67A13.12,13.12,0,0,0,94,174.3a5.48,5.48,0,0,0,1.28,1.84,5.65,5.65,0,0,0,1.14.82,12.57,12.57,0,0,1,1.8-3.6A12.42,12.42,0,0,1,100.63,170.88Z"/><circle class="cls-15" cx="103.65" cy="178.82" r="1.22"/><circle class="cls-15" cx="111.57" cy="178.82" r="1.22"/><polygon class="cls-22" points="107.36 185.25 112.08 188.42 112.08 192.86 107.68 196.69 102.63 192.86 102.63 188.42 107.36 185.25"/><polygon class="cls-22" points="103.63 205.21 103.81 209.44 108.37 212.77 112.55 209.63 111.56 209.44 111.75 205.21 103.63 205.21"/><path class="cls-23" d="M107.35,183.68v1.63a15.53,15.53,0,0,1-1.81,1.52,16.75,16.75,0,0,1-2.91,1.69v7.14l1,10.08.17,3.69a7.68,7.68,0,0,1-1.45,1.73,8.07,8.07,0,0,1-4.94,1.93,9,9,0,0,0,1.4-2.87,13.1,13.1,0,0,0,.39-3c.06-1,.1-2.26.06-3.82q-1.16-6.44-2.3-12.88a12.94,12.94,0,0,1,1.52-5.11,12.69,12.69,0,0,1,2.37-3.09,7.87,7.87,0,0,1,2.47-1.69A7.6,7.6,0,0,1,106,180q-.06.41-.15.84c-.08.35-.16.66-.24,1a6.24,6.24,0,0,1,1.07,1A5.72,5.72,0,0,1,107.35,183.68Z"/><path class="cls-23" d="M107.35,183.64v1.61a17.79,17.79,0,0,0,1.82,1.5,17.18,17.18,0,0,0,2.91,1.67v7.05l-1,10-.17,3.66a7.53,7.53,0,0,0,1.44,1.7,8.12,8.12,0,0,0,5,1.91,9,9,0,0,1-1.41-2.83,14,14,0,0,1-.38-3c-.06-1-.1-2.24-.06-3.77q1.15-6.37,2.3-12.73a12.71,12.71,0,0,0-1.52-5.06,12.56,12.56,0,0,0-2.37-3.05,8.06,8.06,0,0,0-2.47-1.67,7.78,7.78,0,0,0-2.65-.61c0,.26.09.54.15.83s.16.66.24.95a7,7,0,0,0-1.07.94A7.06,7.06,0,0,0,107.35,183.64Z"/><path class="cls-24" d="M172,153.22c1.81.38,2.83.57,3.49,1.56a11.11,11.11,0,0,0,1.45,2.11,6.77,6.77,0,0,0,1,.86,6.27,6.27,0,0,0,.84-.76,9.06,9.06,0,0,0,.94-1.3c.37-.48,1.19-.87,3.15-.43a3.5,3.5,0,0,1,2,1.57,4.54,4.54,0,0,1,.15,4.16,2.45,2.45,0,0,1-1.12,2.19,1.64,1.64,0,0,1-1.12.14H172.53a7.13,7.13,0,0,0-5.14,3.45,8.85,8.85,0,0,0-1.12,4.65,5.36,5.36,0,0,1-2.83-.47c-2.46-1.17-3.1-4-3.25-4.67a7.45,7.45,0,0,1-.18-1.6c0-2.78-.09-7.12-.13-12.55l1.52.57h0c.85.58,3.49.3,3.49.3h2.44A25.3,25.3,0,0,1,172,153.22Z"/><path class="cls-25" d="M184.92,139.2a10.72,10.72,0,0,0-1.54-1.34l-1.37-.08a7.25,7.25,0,0,1-2.5-.15c-1.82,0-3.64-.17-5.46-.09a1.56,1.56,0,0,1-1.15-.08c-1.59.07-3.17.19-4.76.26-1.77.07-8.23.59-9.49,1.8a8.66,8.66,0,0,0-2.53,5.88,9.73,9.73,0,0,0,1.82,6,6,6,0,0,0,3.39,2.86,4.62,4.62,0,0,0,1.59.11s0,0,8.53.2a5.11,5.11,0,0,1,1.54.26,3.68,3.68,0,0,1,2.22,1.36c.27.47.1.61.51,1.42.26.5.49.94.91,1a1.3,1.3,0,0,0,1-.32c.9-.61.7-1.19,1.42-1.62a4.35,4.35,0,0,1,2.2-.38,3.46,3.46,0,0,1,1.36.12,3.13,3.13,0,0,1,1.29.91,3.21,3.21,0,0,1,.71,1.68,3.9,3.9,0,0,1,0,1,5,5,0,0,1-.58,2.46c-.32.54-.63.7-.58.78s1.93-.42,3.11-1.88a6.33,6.33,0,0,0,1.29-3.1V144.37A12.4,12.4,0,0,0,184.92,139.2Z"/><path class="cls-25" d="M183.38,137.86l-.67-.4H164.4a14.14,14.14,0,0,0-3,.7,13.12,13.12,0,0,0-2.33,1.09"/><path class="cls-26" d="M165.57,170.79h18.31a3.65,3.65,0,0,0,1.68-1.09,3.86,3.86,0,0,0,.78-3A3.61,3.61,0,0,0,185,164a3.54,3.54,0,0,0-2.33-.71l-10.15.07a7.4,7.4,0,0,0-4.9,2.15A7.48,7.48,0,0,0,165.57,170.79Z"/><rect class="cls-27" x="172.39" y="163.32" width="8.21" height="7.43"/><path class="cls-28" d="M157.74,170.75h7.31a6,6,0,0,1-3.29-1.64,6.23,6.23,0,0,1-1.75-4.43,7.26,7.26,0,0,0-2.27,6.07Z"/><path class="cls-26" d="M165.57,178.72a8.62,8.62,0,0,1-4.92-2,8.76,8.76,0,0,1-2.91-6h7.83Z"/><path class="cls-27" d="M160,164.68a7.15,7.15,0,0,0-1.76,2.53,7.3,7.3,0,0,0-.51,3.54h7.83a6.5,6.5,0,0,1-5.56-6.07Z"/><path class="cls-27" d="M172.68,178.72h-7.11v-8a8.24,8.24,0,0,1,4.66,2.21A8.35,8.35,0,0,1,172.68,178.72Z"/><rect class="cls-26" x="165.57" y="178.72" width="7.12" height="6.27"/><rect class="cls-27" x="165.57" y="184.99" width="7.12" height="6.27"/><rect class="cls-26" x="165.57" y="191.26" width="7.12" height="6.27"/><rect class="cls-27" x="165.57" y="197.54" width="7.12" height="6.27"/><rect class="cls-26" x="165.57" y="203.81" width="7.12" height="6.27"/><path class="cls-29" d="M197.07,219.85,191,177.55a9.55,9.55,0,0,0-6.92-6.8H165.76a7.86,7.86,0,0,1,6.73,8q-.17,15.67-.32,31.37h-7.12v9.76Z"/><path class="cls-29" d="M145.84,170.75h11.9a9,9,0,0,0,2.91,6l-.06,43.14H145.84Z"/><path class="cls-24" d="M145.84,181.17h-3.17a7.27,7.27,0,0,1-3.23-3.23v-5.82a1.76,1.76,0,0,1,.51-.91,1.8,1.8,0,0,1,1-.46h4.92Z"/><path class="cls-30" d="M160.65,204.52h4.92V178.65a8.51,8.51,0,0,1-2.68-.63,8.75,8.75,0,0,1-2.24-1.37Z"/><polygon class="cls-31" points="160.65 204.52 160.65 226.13 170.87 226.13 170.87 219.85 165.57 219.85 165.57 204.52 160.65 204.52"/><rect class="cls-31" x="175.46" y="219.85" width="10.16" height="6.27"/><path class="cls-32" d="M171.13,232.09v-6H160.91a3.38,3.38,0,0,0-2.78,1,3.2,3.2,0,0,0-.84,2,3.21,3.21,0,0,0,3.62,3Z"/><path class="cls-32" d="M175.46,226.13h10.16v6H175.46a2.85,2.85,0,0,1-3.75-3,3.15,3.15,0,0,1,1-2.29A3.2,3.2,0,0,1,175.46,226.13Z"/><circle class="cls-7" cx="161.99" cy="158.8" r="1.33"/><circle class="cls-7" cx="166.9" cy="158.8" r="1.33"/><circle class="cls-10" cx="166.07" cy="158.39" r="0.5"/><circle class="cls-10" cx="161.13" cy="158.3" r="0.5"/><path class="cls-24" d="M247,153.51c1.78.38,2.8.56,3.45,1.54a11,11,0,0,0,1.44,2.09,6.73,6.73,0,0,0,1,.85,6,6,0,0,0,.84-.75,10.9,10.9,0,0,0,.93-1.28c.36-.48,1.17-.86,3.11-.43a3.46,3.46,0,0,1,2,1.55,4.52,4.52,0,0,1,.15,4.12,2.42,2.42,0,0,1-1.11,2.16,1.61,1.61,0,0,1-1.11.14H247.51a7.05,7.05,0,0,0-5.08,3.42,8.71,8.71,0,0,0-1.11,4.59,5.3,5.3,0,0,1-2.8-.46c-2.43-1.16-3.06-4-3.21-4.62a8.34,8.34,0,0,1-.19-1.59c0-2.75-.08-7-.12-12.41l1.5.56h0c.84.58,3.45.3,3.45.3h2.42A25.73,25.73,0,0,1,247,153.51Z"/><path class="cls-33" d="M259.76,139.64a10.5,10.5,0,0,0-1.52-1.32l-1.35-.08a7.06,7.06,0,0,1-2.47-.15c-1.8,0-3.6-.17-5.41-.09a1.58,1.58,0,0,1-1.14-.07c-1.56.06-3.13.18-4.7.25-1.75.07-8.14.58-9.39,1.78a8.51,8.51,0,0,0-2.49,5.82,9.56,9.56,0,0,0,1.79,5.95,5.94,5.94,0,0,0,3.36,2.82,4.27,4.27,0,0,0,1.56.12s0,0,8.45.19a5.59,5.59,0,0,1,1.51.26,3.67,3.67,0,0,1,2.2,1.34c.27.47.1.61.51,1.41.25.5.48.93.9,1a1.28,1.28,0,0,0,1-.31c.89-.61.69-1.18,1.4-1.6a4.28,4.28,0,0,1,2.18-.39,3.56,3.56,0,0,1,1.34.13,2.9,2.9,0,0,1,1.28.9,3.23,3.23,0,0,1,.71,1.66,7.41,7.41,0,0,1-.58,3.39c-.32.53-.63.69-.58.77s1.92-.42,3.07-1.86c.91-1.12,1.28-3.07,1.28-16.82A12.23,12.23,0,0,0,259.76,139.64Z"/><path class="cls-33" d="M258.24,138.32l-.66-.39H239.47a13.67,13.67,0,0,0-3,.68,13.26,13.26,0,0,0-2.31,1.08"/><path class="cls-28" d="M232.88,170.85h7.23a5.93,5.93,0,0,1-3.25-1.63,6.21,6.21,0,0,1-1.74-4.38,7.24,7.24,0,0,0-2.24,6Z"/><path class="cls-34" d="M240.63,170.89h18.11a3.53,3.53,0,0,0,1.66-1.08,3.81,3.81,0,0,0,.77-3,3.56,3.56,0,0,0-1.28-2.62,3.47,3.47,0,0,0-2.3-.71l-10,.07a7.16,7.16,0,0,0-6.91,7.35Z"/><rect class="cls-35" x="247.37" y="163.5" width="8.13" height="7.35"/><path class="cls-35" d="M240.63,178.73a8.46,8.46,0,0,1-4.87-2,8.65,8.65,0,0,1-2.88-5.89h7.75Z"/><path class="cls-34" d="M235.12,164.84a7.41,7.41,0,0,0-1.73,2.51c-.13.31-.21.58-.26.73a7.42,7.42,0,0,0-.25,2.77h7.75a6.43,6.43,0,0,1-3.84-2A6.5,6.5,0,0,1,235.12,164.84Z"/><path class="cls-34" d="M247.66,178.73h-7v-7.88a8.13,8.13,0,0,1,4.6,2.18A8.27,8.27,0,0,1,247.66,178.73Z"/><rect class="cls-35" x="240.63" y="178.73" width="7.04" height="6.21"/><rect class="cls-34" x="240.63" y="184.93" width="7.04" height="6.21"/><rect class="cls-35" x="240.63" y="191.14" width="7.04" height="6.21"/><rect class="cls-34" x="240.63" y="197.35" width="7.04" height="6.21"/><rect class="cls-35" x="240.63" y="203.55" width="7.04" height="6.21"/><path class="cls-29" d="M271.78,219.42l-6-41.84a9.41,9.41,0,0,0-6.85-6.73H240.81a8,8,0,0,1,5,2.89,7.92,7.92,0,0,1,1.66,5q-.15,15.51-.32,31h-7v9.66Z"/><path class="cls-24" d="M218.36,181.35h-3.13a7.06,7.06,0,0,0-1.79,1.28,7.17,7.17,0,0,0-1.41,1.92v5.76a1.73,1.73,0,0,0,1.47,1.34h4.86Z"/><path class="cls-30" d="M235.76,204.25h4.87V178.66A8.29,8.29,0,0,1,238,178a8.58,8.58,0,0,1-2.21-1.36Z"/><polygon class="cls-31" points="235.76 204.25 235.76 225.62 245.87 225.62 245.87 219.42 240.63 219.42 240.63 204.25 235.76 204.25"/><rect class="cls-31" x="250.41" y="219.42" width="10.04" height="6.21"/><path class="cls-32" d="M246.13,231.52v-6H236a3.37,3.37,0,0,0-2.75,1,3.21,3.21,0,0,0-.83,2,3.18,3.18,0,0,0,3.58,3Z"/><path class="cls-32" d="M250.41,225.62h10v5.95h-10a2.82,2.82,0,0,1-3.71-3,3.12,3.12,0,0,1,1-2.27A3.18,3.18,0,0,1,250.41,225.62Z"/><circle class="cls-7" cx="237.08" cy="159.03" r="1.32"/><circle class="cls-7" cx="241.95" cy="159.03" r="1.32"/><circle class="cls-10" cx="241.12" cy="158.63" r="0.5"/><circle class="cls-10" cx="236.24" cy="158.53" r="0.5"/><path class="cls-33" d="M262.63,144.76a51,51,0,0,1,2,13.43c0,1.86-.07,3.37-.13,4.11a49.14,49.14,0,0,1-1.89,10.42,8,8,0,0,0-1.05-.79,7.43,7.43,0,0,0-2.66-1.08,3.65,3.65,0,0,0,1.63-1.23,4.48,4.48,0,0,0,0-4.78,3.45,3.45,0,0,0-.63-.66,3.67,3.67,0,0,0-1.61-.74l.89-1.46Z"/><circle class="cls-36" cx="256.41" cy="162.77" r="0.46"/><path class="cls-33" d="M233.08,151.73q.58,7,1.18,14.08l.86-1,0-10.9Z"/><path class="cls-29" d="M232.88,170.85l2.88,5.83,0,15H218.36v-10.3h10.3c.67-2.89,1.35-5.78,2-8.67a2.16,2.16,0,0,1,.57-1.15A2.33,2.33,0,0,1,232.88,170.85Z"/><path class="cls-37" d="M74.4,143.78l13.07,8.91a2.1,2.1,0,0,1-2.35,3.45l-13.07-8.91Z"/><path class="cls-37" d="M62.22,149.83l13.08,8.91c1.6,1,1.84,2.84,1.17,3.64s-2.25.88-3.53-.19l-13.07-8.91Z"/><path class="cls-37" d="M69.93,145.7,83,154.61a2.15,2.15,0,1,1-2.35,3.45l-13.08-8.91Z"/><path class="cls-37" d="M66.68,148.13,79.76,157a2.09,2.09,0,1,1-2.35,3.45l-13.08-8.91Z"/><path class="cls-37" d="M62.22,140.76l2.11.84a6.4,6.4,0,0,1,2.5-2.25,6.7,6.7,0,0,1,4.32-.47,7.69,7.69,0,0,1,2.45.91l2.34,5,11.51,8.09L83,154.61,79.76,157l-4.46,1.7-3.56,2.62-11.87-8.08Z"/><path class="cls-38" d="M89.22,151.88l-1.77,1-11.51-8.09-1.82,2.25a4.17,4.17,0,0,1-6.54.54l6.86-8.9,4.6-1.07a4.88,4.88,0,0,1,3.65.5,4.79,4.79,0,0,1,1.82,2.07l27.85-5.35,2.79,13.6Z"/><polygon class="cls-38" points="67.58 147.6 74.44 138.71 79.04 137.63 84.51 140.2 104.36 136.39 112.36 134.85 115.15 148.45 89.22 151.88 83.12 148.88 77.44 145.56 75.94 143.9 74.12 147.06 67.58 147.6"/><path class="cls-39" d="M38,132.6l24.86,4.93-.65,3.23q-1.38,7-2.78,14l-25.28-5.25Z"/><rect class="cls-38" x="63" y="154.3" width="5.46" height="3.41" rx="1.71" transform="translate(-96.73 108.43) rotate(-50.83)"/><rect class="cls-38" x="66" y="155.94" width="5.46" height="3.51" rx="1.76" transform="translate(-96.94 111.37) rotate(-50.83)"/><rect class="cls-38" x="69.01" y="157.83" width="5.46" height="3.74" rx="1.87" transform="translate(-97.38 114.44) rotate(-50.83)"/><path class="cls-38" d="M61.9,155.92c-.55-.53-.73-1.41-.5-1.57.43-.3,2.49,1.47,2.27,1.92C63.53,156.54,62.53,156.51,61.9,155.92Z"/><path class="cls-38" d="M92.12,138.74a36.11,36.11,0,0,0,6.64-3.89c3.27-2.81,4.72-2.94,5.78-4.61a68.78,68.78,0,0,0-2.84,7.82c1.48-.92,2.12-2.28,3.16-4,1.42-2.36,3.5-3.22,4.5-4.69-.86,2.84-1.28,5.64-2.14,8.48"/><path class="cls-5" d="M98.07,140.69a8.46,8.46,0,0,1,1-1.56,9.3,9.3,0,0,1,6-2.93l7.25-1.35,2.79,13.6-10.63,1.41L99,149.35a7.32,7.32,0,0,1,2.5-2.5,7.44,7.44,0,0,1,4.57-1l-9-.57a7.78,7.78,0,0,1,2.93-2.43,8,8,0,0,1,5.29-.5Z"/><path class="cls-40" d="M42.38,199.59H37.56V177.05a2.51,2.51,0,0,1,2.34-1.6,2.55,2.55,0,0,1,2.48,1.6Z"/><path class="cls-40" d="M47.43,198.24H43.21V175.7a2.11,2.11,0,0,1,4.22,0Z"/><path class="cls-40" d="M52.56,200.58H48.35V178a2.18,2.18,0,0,1,4.21,0Z"/><path class="cls-40" d="M57.74,200.58H53.53V182.23a2.11,2.11,0,1,1,4.21,0Z"/><path class="cls-40" d="M42.62,204.86l-4.94,2.86L29,194.32a2.78,2.78,0,0,1,1.29-3.47,2.56,2.56,0,0,1,2.7.51Z"/><path class="cls-40" d="M37.56,190.35l4.82-.73a.87.87,0,0,0,.42.12.86.86,0,0,0,.41-.12l4.22.36a.82.82,0,0,0,.49.13.91.91,0,0,0,.43-.13l4.21.68a1.41,1.41,0,0,0,.45.4,1.24,1.24,0,0,0,.52.16l4.21,9.36a9,9,0,0,1-.9,5.29,8.64,8.64,0,0,1-2.53,3v3.82H41.18v-2.34a5.74,5.74,0,0,1-1.72-.74,5.81,5.81,0,0,1-1.78-1.85l-.12-9.48v-7.89Z"/><rect class="cls-41" x="38.15" y="212.65" width="18.56" height="17.49"/><g id="yeux-2" data-name="yeux"><path class="cls-42" d="M170.81,49.22H169a2.1,2.1,0,0,1-.61-.15,2,2,0,0,1-.61-.41,2.23,2.23,0,0,1-.42-.75,2.29,2.29,0,0,1-.09-.9,1.91,1.91,0,0,1,.13-.75,1.75,1.75,0,0,1,.38-.55,2.11,2.11,0,0,1,.72-.53,2.28,2.28,0,0,1,.93-.19,2.65,2.65,0,0,1,.69.06,3,3,0,0,1,1.26.67,6.25,6.25,0,0,1,.45.44,7.49,7.49,0,0,1,.51.61Z"/><path class="cls-42" d="M174.07,49.31h1.82a2,2,0,0,0,1.23-.55,2.8,2.8,0,0,0,.54-1,3,3,0,0,0,.08-.65,2.08,2.08,0,0,0-.12-.71,2,2,0,0,0-.37-.65,1.87,1.87,0,0,0-.48-.45,2.29,2.29,0,0,0-1.33-.3,3.19,3.19,0,0,0-.82.13,3.76,3.76,0,0,0-1.17.66,3.64,3.64,0,0,0-.48.4,5.29,5.29,0,0,0-.47.59C173,47.56,173.56,48.49,174.07,49.31Z"/></g><g id="visage-3" data-name="visage"><path class="cls-43" d="M166.83,53h11.35V51.67a3,3,0,0,0-.58-1.33,3.1,3.1,0,0,0-1.38-1L169,49.22a2.93,2.93,0,0,0-2.16,2.52Z"/><path class="cls-44" d="M185.45,41.51c-.17.21-.61.34-1.77,0l0,6.16a8.41,8.41,0,0,1,2.67,9.9l-.45.09A8.5,8.5,0,0,0,183.71,55l-.05,6.4a11.37,11.37,0,0,1-2.16,4.41,12,12,0,0,1-3.21,2.74h-.12V51.66A3.25,3.25,0,0,0,177,49.72a2.77,2.77,0,0,0-.79-.43,2.57,2.57,0,0,0,1.38-1.37,2.1,2.1,0,0,0,.13-.55,2.35,2.35,0,0,0-.19-1.22,2.12,2.12,0,0,0-.47-.64,1.75,1.75,0,0,0-.46-.35,2.87,2.87,0,0,0-1.42-.19,3.26,3.26,0,0,0-1.32.5,5.24,5.24,0,0,0-.81.59l-.28.31a2.19,2.19,0,0,0-.25.33l-.18.06c-.14-.19-.29-.37-.45-.55a4.78,4.78,0,0,0-.7-.65,2.87,2.87,0,0,0-1.34-.57,2.44,2.44,0,0,0-1.81.46,2.14,2.14,0,0,0-.65.81,2.76,2.76,0,0,0,0,1.86,1.69,1.69,0,0,0,.33.53,2,2,0,0,0,1.23.57,1.37,1.37,0,0,0-.56.18,5.48,5.48,0,0,0-1.06.92,2.69,2.69,0,0,0-.54,1.41L167,68.51a4.6,4.6,0,0,1-.89-.28c-.25-.11-1.06-.49-2.69-2.46-.16-.2-.42-.51-.61-.78A12,12,0,0,1,161,59.34V55.89l-.41,0a4.4,4.4,0,0,1-.57,1,4.08,4.08,0,0,1-.9.86,10.64,10.64,0,0,1-.42-3.46,11.11,11.11,0,0,1,.25-1.9,10.12,10.12,0,0,1,1.82-3.78l.21-7.26h-2.25a8,8,0,0,1,5.75-5.07c-.18-.23-.38-.48-.6-.73l-.47-.5a7.15,7.15,0,0,1,8.78,5.91c.11-.38,1.55-4.88,5.62-5.92a7,7,0,0,1,3.47,0,3.21,3.21,0,0,0-.41.34,4.37,4.37,0,0,0-.93,1.17,6.88,6.88,0,0,1,3.78,1.64C184.83,39.21,185.89,40.93,185.45,41.51Z"/><polygon class="cls-45" points="172.42 46.62 170.74 49.26 174.28 49.28 172.42 46.62"/><path class="cls-46" d="M161.3,37.75c-.35-.21.72-4.94,4.43-8.25a14.22,14.22,0,0,1,8.07-3.41,14.8,14.8,0,0,1,7.6,1.22,14.17,14.17,0,0,1,4.91,3.91,12.47,12.47,0,0,1,2.62,4.63,5.36,5.36,0,0,1,.48,2.77c-.46,2.08-3,3.53-3.79,3.05-.35-.22-.11-.62-.56-1.61a5.78,5.78,0,0,0-1.65-2,4.7,4.7,0,0,0-2-1.21c-.74-.18-1.27,0-1.36-.28s1.11-1.13.95-1.52c0-.05-.1-.17-1-.19a6.43,6.43,0,0,0-3.5.68,7.79,7.79,0,0,0-2.3,1.72c-1.51,1.7-1.66,3.75-2,3.69-.12,0-.15-.31-.17-.5a6.26,6.26,0,0,0-1.55-3.05,6.21,6.21,0,0,0-3.11-2.23,14.18,14.18,0,0,0-2-.24c-1.62-.13-1.87,0-1.91.11s.32.54.6.79.48.33.47.43c0,.27-1.08.16-2.19.76C161.6,37.41,161.42,37.81,161.3,37.75Z"/><path class="cls-47" d="M166.83,53h11.35V66a6.92,6.92,0,0,1-3.67-5.81v5.86a8.14,8.14,0,0,1-2-1.69,8.59,8.59,0,0,1-1.89-4.1v5.8a8.21,8.21,0,0,1-2-1.77,8.4,8.4,0,0,1-1.77-3.91Z"/></g><g id="corps-2" data-name="corps"><path class="cls-48" d="M188,97.67v9.56a8.29,8.29,0,0,1-1.15-.9,9.32,9.32,0,0,1-2.65-5v4.82a7.35,7.35,0,0,1-1.48-1,7.52,7.52,0,0,1-1.29-1.47,8.44,8.44,0,0,1-1.35-3.88l-.22-.06v5.77a10.38,10.38,0,0,1-4.12-6V97.83l-3.71,0-.09,9.36a8.84,8.84,0,0,1-3.79-5.83v4.79a7,7,0,0,1-1.83-1.2A7.85,7.85,0,0,1,164,99.81l-.11,5.61a7,7,0,0,1-4.12-4.24v-.9l23.91-30.87L183.76,55a8,8,0,0,1,1.18,1.14A8.2,8.2,0,0,1,186,57.66l.45-.08a8.58,8.58,0,0,0-2.68-9.9l0-6.17h1.76l3.86-3.94.22.89.05.39,0,20.37a3,3,0,0,1,.75-.29,3.72,3.72,0,0,1,.88-.11,8,8,0,0,1,1,0,10.35,10.35,0,0,1,1.93.3c.61.18,1.36.4,1.37.71s-1.22.8-1.35.84c-.62.19-1.14.2-1.19.45s0,.25.09.25c.95.13,1.67.6,1.29.44a5.84,5.84,0,0,1,1.16.8c2.68,2.44,2.2,4,2.29,4.29l-2.21-1.21,0,20.8a10.3,10.3,0,0,1-1.85-1.94,10.81,10.81,0,0,1-1.95-4.87c0-.25-.09-.48-.13-.72l0,7.53c0,.09.05.19,0,.23s-1.15-.91-1.43-1.22l-.06-.07a9.11,9.11,0,0,1-1.39-2.27,13.42,13.42,0,0,1-.84-4.7v7.89A8.17,8.17,0,0,1,186.09,85a8.58,8.58,0,0,1-2-3,8.73,8.73,0,0,1-.63-2.84V78.6l0,13.88a5.53,5.53,0,0,0,.93,2.8,5.92,5.92,0,0,0,3.34,2.37Z"/><path class="cls-44" d="M195.61,86.53l.06,11.22L188,97.67a5.65,5.65,0,0,1-2.6-1.26,5.71,5.71,0,0,1-1.87-3.56l-.06-14.22a9.33,9.33,0,0,0,2.19,5.94,8.73,8.73,0,0,0,2.24,1.82V78.5c.1,2.12.58,6.46,3.38,7.88l.34.15q0-3.77,0-7.53a11.89,11.89,0,0,0,3.47,7.14Z"/><path class="cls-44" d="M184.23,101.35a9.31,9.31,0,0,0,2.07,4.35,9,9,0,0,0,1.73,1.53l.08,6.2a5.39,5.39,0,0,0,.22,1.06,4.8,4.8,0,0,0,.39.9,14.47,14.47,0,0,0,.95,1.27,16,16,0,0,0,1.14,1.19c.29.21.61.42.95.62a12.28,12.28,0,0,0,1.73.89,5.84,5.84,0,0,0,2,.32H156v-4.32a4.26,4.26,0,0,1,2.06-2l1.71,0V101.18a7,7,0,0,0,2.12,3.09,7,7,0,0,0,2,1.14L164,99.8a7.51,7.51,0,0,0,1.95,4.8,7.18,7.18,0,0,0,2.26,1.59V101.4a8.84,8.84,0,0,0,3.79,5.83l.07,7.49a4.65,4.65,0,0,1,1.72-1.32l2.07-.1V99.8a11.08,11.08,0,0,0,4.06,5.74V99.77l.22.06a8.21,8.21,0,0,0,2.41,5.14,7.31,7.31,0,0,0,1.71,1.2Z"/><path class="cls-44" d="M160.79,95.65l1.8-19.08a6.41,6.41,0,0,0-3.13-5.34,6.32,6.32,0,0,0-4.6-.4,7.21,7.21,0,0,0-3.06,2.65,4.06,4.06,0,0,0-.65,1.61L151,77.5l-5.32,5.28a6,6,0,0,0,4-.08l-3.78,3.84a7.82,7.82,0,0,0,4.1-.1l-.36,5.47a5.55,5.55,0,0,0,1.93,3.15,5.34,5.34,0,0,0,2.37,1.08Z"/><path class="cls-46" d="M151.24,68.25c0-.43.6-5,1.07-5.77s1.92-.89,2.08-.89l3.43,0a5.21,5.21,0,0,1-1-.25,6.07,6.07,0,0,1-1.83-1,4.75,4.75,0,0,1,1.17-.64,4.64,4.64,0,0,1,1.11-.28l3.68,0a12.58,12.58,0,0,0,2,6,24.34,24.34,0,0,0,2.5,2.44,3.15,3.15,0,0,0,.77.54,2.87,2.87,0,0,0,.62.22c0-2.7,0-5.41-.05-8.11a8.82,8.82,0,0,0,2.24,4.46,8.47,8.47,0,0,0,1.52,1.22v-5.8a8.5,8.5,0,0,0,3.06,5.3,7.18,7.18,0,0,0,.8.5V60.22a7.85,7.85,0,0,0,2.92,5.38q.36.23.75.42c0,.83,0,1.65,0,2.49l-1.49,1.14-.05-1.13h-2.56v4.86L172.7,75l-3.5,0,0,4.87-1.41,1.77h-.71l0-.29h-2.68v4.83l-2.23,2.51v-.8h-2.38V77.5l-8.66-1.34.17-8"/><path class="cls-46" d="M172.33,46.77l-4.56-1.06c.08-.16-.11.08.14-.15a2.38,2.38,0,0,1,.61-.4,2.07,2.07,0,0,1,.79-.23,2.18,2.18,0,0,1,1.2.25,3.7,3.7,0,0,1,1,.57A3.8,3.8,0,0,1,172.33,46.77Z"/><path class="cls-46" d="M172.51,46.77l4.71-1.09c-.08-.16.09,0-.16-.17a2.64,2.64,0,0,0-.68-.43,2.69,2.69,0,0,0-.84-.15,2.2,2.2,0,0,0-1.21.25,3.86,3.86,0,0,0-1,.57A3.8,3.8,0,0,0,172.51,46.77Z"/><path class="cls-46" d="M159.09,86.1l.65-8.79L151.2,76a14.76,14.76,0,0,0,2.48,9.62l1.87-8.24a11.07,11.07,0,0,0,3.54,8.72Z"/></g><g id="Ceinture-2" data-name="Ceinture"><polygon class="cls-49" points="159.74 92.6 159.74 100.28 165.75 92.52 163.65 92.52 163.62 92.4 162.12 92.4 162.1 92.6 159.74 92.6"/><polygon class="cls-49" points="162.12 88.96 162.12 88.64 164.35 86.19 170.69 86.19 166.21 91.98 166.13 87.89 163.63 87.89 163.61 88.96 162.12 88.96"/><polygon class="cls-49" points="167.96 81.33 168.46 81.34 171.04 81.33 171.1 85.62 175.63 79.77 169.18 79.81 167.96 81.33"/><polygon class="cls-49" points="172.7 74.97 174.08 73.28 180.74 73.28 175.88 79.51 175.82 75.01 172.7 74.97"/><polygon class="cls-49" points="178.18 69.78 178.17 68.51 176.68 69.64 176.69 69.78 178.18 69.78"/><path class="cls-49" d="M180.8,73.1l2.85-3.69.06-8.14a11,11,0,0,1-5.55,7.24h2.63Z"/><polygon points="174.07 68.51 174.08 73.28 176.69 73.28 176.63 68.51 174.07 68.51"/><polygon points="164.35 81.33 164.37 86.1 166.97 86.1 166.91 81.33 164.35 81.33"/><polygon points="168.46 81.28 168.5 86.1 171.05 86.1 171.04 81.28 168.46 81.28"/><polygon points="169.24 75.01 169.25 79.77 171.86 79.77 171.8 75.01 169.24 75.01"/><polygon points="173.26 75.01 173.28 79.77 175.89 79.77 175.82 75.01 173.26 75.01"/><polygon points="178.17 68.51 178.19 73.28 180.8 73.28 180.74 68.51 178.17 68.51"/><polygon points="163.68 87.84 163.65 92.52 166.31 92.48 166.24 87.84 163.68 87.84"/><polygon points="159.74 87.84 159.76 92.6 162.36 92.6 162.3 87.84 159.74 87.84"/><polygon class="cls-43" points="171.86 74.96 173.34 75 173.36 79.81 171.86 79.8 171.86 74.96"/><polygon class="cls-43" points="167.03 81.29 168.46 81.28 168.47 86.19 166.97 86.19 167.03 81.29"/><polygon class="cls-43" points="162.27 87.84 163.75 87.84 163.76 92.6 162.27 92.6 162.27 87.84"/><polygon class="cls-43" points="176.63 68.51 178.16 68.52 178.18 73.27 176.55 73.27 176.63 68.51"/></g><g class="cls-50"><g class="cls-50"><path class="cls-3" d="M67.26,97v9.69a8.45,8.45,0,0,1-1.16-.91,9.47,9.47,0,0,1-2.71-5v4.89a6.92,6.92,0,0,1-1.5-1,7.79,7.79,0,0,1-1.32-1.49,8.43,8.43,0,0,1-1.37-3.93L59,99.11V105a10.52,10.52,0,0,1-4.2-6V97.15l-3.78,0-.09,9.49A8.92,8.92,0,0,1,47,100.77v4.86a7.21,7.21,0,0,1-1.86-1.22,8,8,0,0,1-2.43-5.25l-.11,5.68a7.14,7.14,0,0,1-4.2-4.3v-.91L62.81,68.32l.1-14.65a8.23,8.23,0,0,1,1.21,1.15,9,9,0,0,1,1.07,1.59l.46-.09a8.65,8.65,0,0,0-2.74-10l0-6.26h1.8l3.93-4,.22.9,0,.39,0,20.66a3.66,3.66,0,0,1,.78-.29,3.8,3.8,0,0,1,.89-.11,8.35,8.35,0,0,1,1,0,10.1,10.1,0,0,1,2,.31c.61.18,1.38.4,1.39.72s-1.25.81-1.38.84c-.63.2-1.16.21-1.21.46s0,.26.1.26c1,.13,1.7.6,1.31.44a6.38,6.38,0,0,1,1.18.82c2.73,2.47,2.24,4.09,2.33,4.35L75,64.58l0,21.1a10.72,10.72,0,0,1-3.88-6.91L71,78l0,7.64c0,.09,0,.19,0,.23S69.8,85,69.51,84.67l-.06-.07A9.1,9.1,0,0,1,68,82.3a13.35,13.35,0,0,1-.85-4.76v8a8.21,8.21,0,0,1-1.89-1.42,8.79,8.79,0,0,1-2-3.07,8.66,8.66,0,0,1-.64-2.88v-.51l0,14.07a5.78,5.78,0,0,0,.94,2.84A6,6,0,0,0,67,97Z"/><path class="cls-4" d="M75,85.68l.07,11.38L67.26,97a5.68,5.68,0,0,1-2.64-1.28,5.81,5.81,0,0,1-1.91-3.61l-.06-14.43a9.45,9.45,0,0,0,2.23,6,8.67,8.67,0,0,0,2.29,1.84v-8c.09,2.15.58,6.56,3.44,8l.35.16q0-3.82,0-7.64a12,12,0,0,0,3.54,7.24c.16.14.31.27.47.39"/><path class="cls-5" d="M38.43,76.52l-6.25,7.11L24,75.22,35.17,61.51a2.91,2.91,0,0,1,.58-.47,3.39,3.39,0,0,1,.71-.36l0-.32a5.52,5.52,0,0,1-1-.25,6.2,6.2,0,0,1-1.85-1,4.57,4.57,0,0,1,1.18-.66A5,5,0,0,1,36,58.15l3.76,0a12.78,12.78,0,0,0,2.08,6,25.7,25.7,0,0,0,2.55,2.48,3.38,3.38,0,0,0,.79.55,3.22,3.22,0,0,0,.64.22l-.06-8.23A8.84,8.84,0,0,0,48,63.71,8.37,8.37,0,0,0,49.54,65V59.06a8.67,8.67,0,0,0,3.12,5.38,7.53,7.53,0,0,0,.82.51V59a7.93,7.93,0,0,0,3,5.46c.25.15.5.29.77.42,0,.85,0,1.68,0,2.53l-1.53,1.15,0-1.14H53v4.93L51.64,74l-3.56,0,0,4.94-1.45,1.8h-.72l0-.3-2.73,0v4.9l-2.27,2.53V87H38.43Z"/><path class="cls-4" d="M63.39,100.72a9.41,9.41,0,0,0,2.12,4.41,8.92,8.92,0,0,0,1.75,1.55l.09,6.29a4.93,4.93,0,0,0,.22,1.08,5.7,5.7,0,0,0,.4.91,13.44,13.44,0,0,0,1,1.28,13.26,13.26,0,0,0,1.16,1.21c.3.21.62.43,1,.64a13.88,13.88,0,0,0,1.76.9,6.07,6.07,0,0,0,2,.32H34.59v-4.38a4.31,4.31,0,0,1,2.1-2.05l1.74,0V100.54a7.08,7.08,0,0,0,2.17,3.14,6.79,6.79,0,0,0,2,1.15l.11-5.68a7.58,7.58,0,0,0,2,4.86,7.32,7.32,0,0,0,2.3,1.62v-4.86a8.92,8.92,0,0,0,3.87,5.91l.07,7.6a4.69,4.69,0,0,1,1.75-1.34l2.11-.1V99.15A11.27,11.27,0,0,0,59,105V99.11l.23.07a8.25,8.25,0,0,0,2.45,5.21,7.89,7.89,0,0,0,1.74,1.22Z"/><path class="cls-4" d="M36.81,78.38,24.47,63.32a6.7,6.7,0,0,0-2.39-1.46,6.56,6.56,0,0,0-3.7-.17,6.42,6.42,0,0,0-3.63,3,7.31,7.31,0,0,0-.33,4.09,4.19,4.19,0,0,0,.68,1.63l1.62,1.85-.09,7.6A6,6,0,0,0,19.46,77v5.46a8,8,0,0,0,2.91-3L26,83.63a5.69,5.69,0,0,0,3.65.91,5.56,5.56,0,0,0,2.5-.91Z"/><polygon class="cls-6" points="38.43 91.85 38.43 99.64 44.56 91.77 42.42 91.77 42.38 91.64 40.86 91.64 40.84 91.85 38.43 91.85"/><polygon class="cls-6" points="40.86 88.15 40.86 87.83 43.13 85.35 49.6 85.35 45.03 91.22 44.94 87.07 42.4 87.07 42.37 88.15 40.86 88.15"/><polygon class="cls-6" points="46.81 80.42 47.31 80.42 49.95 80.42 50.01 84.76 54.63 78.83 48.05 78.88 46.81 80.42"/><polygon class="cls-6" points="51.64 73.96 53.05 72.24 59.83 72.24 54.89 78.57 54.83 74 51.64 73.96"/><polygon class="cls-6" points="57.22 68.69 57.22 67.41 55.69 68.55 55.71 68.69 57.22 68.69"/><path class="cls-6" d="M59.9,72.06l2.91-3.74.06-8.26a11.17,11.17,0,0,1-5.66,7.35h2.68Z"/><polygon class="cls-7" points="53.04 67.41 53.05 72.24 55.71 72.24 55.65 67.41 53.04 67.41"/><polygon class="cls-7" points="43.13 80.42 43.15 85.25 45.81 85.25 45.74 80.42 43.13 80.42"/><polygon class="cls-7" points="47.31 80.36 47.36 85.25 49.96 85.25 49.95 80.36 47.31 80.36"/><polygon class="cls-7" points="48.11 74 48.13 78.83 50.79 78.83 50.72 74 48.11 74"/><polygon class="cls-7" points="52.22 74 52.23 78.83 54.89 78.83 54.83 74 52.22 74"/><polygon class="cls-7" points="57.22 67.41 57.24 72.24 59.9 72.24 59.83 67.41 57.22 67.41"/><polygon class="cls-7" points="42.45 87.02 42.42 91.77 45.13 91.72 45.06 87.02 42.45 87.02"/><polygon class="cls-7" points="38.43 87.02 38.45 91.85 41.11 91.85 41.04 87.02 38.43 87.02"/><polygon class="cls-8" points="50.79 73.95 52.3 73.99 52.31 78.87 50.79 78.86 50.79 73.95"/><polygon class="cls-8" points="45.87 80.38 47.32 80.36 47.33 85.35 45.81 85.35 45.87 80.38"/><polygon class="cls-8" points="41.01 87.02 42.52 87.02 42.53 91.85 41.01 91.85 41.01 87.02"/><polygon class="cls-8" points="55.65 67.41 57.21 67.42 57.22 72.24 55.56 72.24 55.65 67.41"/><path class="cls-9" d="M49.71,47.84H47.86a1.88,1.88,0,0,1-.62-.15,2.08,2.08,0,0,1-.63-.41,2.32,2.32,0,0,1-.42-.77,2.5,2.5,0,0,1-.1-.9,2.19,2.19,0,0,1,.14-.77,1.64,1.64,0,0,1,.38-.55,2.17,2.17,0,0,1,.74-.54,2.38,2.38,0,0,1,.95-.2,2.35,2.35,0,0,1,.7.07,2.93,2.93,0,0,1,1.29.68,4.78,4.78,0,0,1,.46.44,7.64,7.64,0,0,1,.51.62Z"/><path class="cls-9" d="M53,47.94H54.9a2,2,0,0,0,1.24-.57,2.59,2.59,0,0,0,.55-1,2.48,2.48,0,0,0,.08-.66,2,2,0,0,0-.11-.72,1.86,1.86,0,0,0-.38-.65,2,2,0,0,0-.49-.46,2.24,2.24,0,0,0-1.36-.3,2.62,2.62,0,0,0-.83.13,3.75,3.75,0,0,0-1.19.66,3.94,3.94,0,0,0-.49.41,5.58,5.58,0,0,0-.49.6c.52.83,1.09,1.77,1.61,2.61"/><path class="cls-8" d="M45.66,51.7H57.23V50.33a3.15,3.15,0,0,0-2-2.4l-7.37-.09a3,3,0,0,0-2.2,2.56Z"/><path class="cls-4" d="M64.64,40c-.18.22-.63.35-1.8,0l0,6.26a8.51,8.51,0,0,1,2.73,10l-.46.08a8.33,8.33,0,0,0-1.4-1.94,7.39,7.39,0,0,0-.88-.8l0,6.49a11.58,11.58,0,0,1-2.21,4.47,12.34,12.34,0,0,1-3.28,2.78h-.11V50.32a3.3,3.3,0,0,0-1.19-2,2.87,2.87,0,0,0-.81-.43,2.32,2.32,0,0,0,1.54-2,2.26,2.26,0,0,0-.2-1.23,2.21,2.21,0,0,0-.47-.66,2,2,0,0,0-.47-.35,2.88,2.88,0,0,0-1.45-.2,3.47,3.47,0,0,0-1.35.51,4.43,4.43,0,0,0-.82.6c-.06.06-.17.17-.29.31s-.2.26-.26.34l-.18.06c-.14-.19-.29-.38-.45-.56a5.64,5.64,0,0,0-.72-.66,3.11,3.11,0,0,0-1.36-.58,2.54,2.54,0,0,0-1.85.47,2.39,2.39,0,0,0-.66.82,2.85,2.85,0,0,0,0,1.89,1.7,1.7,0,0,0,.34.54,2,2,0,0,0,1.25.57,1.43,1.43,0,0,0-.57.19,5.06,5.06,0,0,0-1.08.93,2.66,2.66,0,0,0-.55,1.43l.12,17a5.53,5.53,0,0,1-.9-.28c-.26-.11-1.09-.5-2.74-2.5a9.91,9.91,0,0,1-.63-.79,12,12,0,0,1-1.8-5.73v-3.5l-.43,0a3.81,3.81,0,0,1-.57,1,4.27,4.27,0,0,1-.92.88A11,11,0,0,1,37.36,53,10.42,10.42,0,0,1,37.62,51a10.29,10.29,0,0,1,1.85-3.84l.22-7.36h-2.3a8.08,8.08,0,0,1,5.86-5.14,9.51,9.51,0,0,0-.61-.74l-.48-.51a7.56,7.56,0,0,1,6,1.14,7.45,7.45,0,0,1,3,4.86c.12-.39,1.58-4.95,5.73-6a7.31,7.31,0,0,1,3.54,0l-.43.34A5,5,0,0,0,59,35a6.87,6.87,0,0,1,3.85,1.66c1.15,1,2.23,2.79,1.78,3.38"/><polygon class="cls-10" points="51.35 45.21 49.65 47.89 53.26 47.91 51.35 45.21"/><path class="cls-5" d="M40,36.21c-.36-.21.73-5,4.5-8.36a14.49,14.49,0,0,1,8.23-3.46,15.06,15.06,0,0,1,7.75,1.24,14.42,14.42,0,0,1,5,4,13,13,0,0,1,2.67,4.69,5.54,5.54,0,0,1,.48,2.82c-.47,2.1-3,3.58-3.86,3.08-.35-.21-.11-.62-.58-1.63a5.82,5.82,0,0,0-1.67-2,4.85,4.85,0,0,0-2-1.22c-.76-.18-1.29,0-1.38-.28-.17-.42,1.13-1.15,1-1.55,0,0-.1-.17-1.05-.19a6.59,6.59,0,0,0-3.57.69,7.84,7.84,0,0,0-2.34,1.75c-1.54,1.71-1.69,3.8-2,3.74-.12,0-.15-.32-.18-.51a6.3,6.3,0,0,0-1.57-3.09,6.3,6.3,0,0,0-3.17-2.27,14.56,14.56,0,0,0-2.08-.24c-1.65-.13-1.91,0-1.95.11s.33.55.61.81.49.33.48.43c0,.27-1.09.16-2.23.77-.74.39-.92.79-1,.73"/><path class="cls-11" d="M45.66,51.7H57.23V64.88A7,7,0,0,1,53.49,59v5.94a8.44,8.44,0,0,1-2-1.71,8.7,8.7,0,0,1-1.93-4.17v5.88a8.07,8.07,0,0,1-2-1.79,8.62,8.62,0,0,1-1.8-4l-.06-7.48"/></g></g><g class="cls-51"><g class="cls-51"><path class="cls-5" d="M259.72,74.78l0,18.61a9.28,9.28,0,0,1-1.62-1.75,9.73,9.73,0,0,1-1.72-4.34c0-.23-.07-.44-.11-.65v6.74c0,.07,0,.17,0,.2s-1-.82-1.26-1.09l-.05-.06a8.56,8.56,0,0,1-1.22-2A12.32,12.32,0,0,1,253,86.2v7.06A7.28,7.28,0,0,1,251.34,92a7.75,7.75,0,0,1-1.71-2.71,7.55,7.55,0,0,1-.55-2.54V86.3l0,12.41a5.07,5.07,0,0,0,3.75,4.63l.19,0v8.55a6.38,6.38,0,0,1-1-.8,8.37,8.37,0,0,1-2.33-4.45V111a6.33,6.33,0,0,1-1.3-.88,6.8,6.8,0,0,1-1.13-1.32,7.64,7.64,0,0,1-1.18-3.47l-.19-.06v5.17a9.24,9.24,0,0,1-3.62-5.32V103.5l-3.25,0-.08,8.37a7.67,7.67,0,0,1-1.58-1.43,8.2,8.2,0,0,1-1.75-3.79V111a6,6,0,0,1-1.6-1.07,7.1,7.1,0,0,1-2.09-4.63l-.1,5a6.24,6.24,0,0,1-3.61-3.79V94.28l12.59-18.11,8.48-11a7.09,7.09,0,0,1,1,1,7.2,7.2,0,0,1,.92,1.4l.4-.08c1.22-3.15.28-5.25-2.33-7.35l0-7h1.55L254,50.2l.2.8.26.75,0,17.21c1.06-.06,4.73-.16,5.25,1.49a8.8,8.8,0,0,1,.07,1.89c0,1,0,1.88-.06,2.44"/><path class="cls-4" d="M259.69,93.39l.06,10-6.71-.07a5,5,0,0,1-2.28-1.13,5.15,5.15,0,0,1-1.64-3.18l-.05-12.73A8.44,8.44,0,0,0,251,91.64a7.72,7.72,0,0,0,2,1.63V86.21c.08,1.89.5,5.78,2.95,7.05l.31.13q0-3.36,0-6.74a10.65,10.65,0,0,0,3,6.4l.41.34"/><path class="cls-5" d="M227,70.08l2.56-1a10.48,10.48,0,0,0,1.6,5.33,23.69,23.69,0,0,0,2.2,2.19,2.61,2.61,0,0,0,.67.47,2.83,2.83,0,0,0,.55.21c0-2.42,0-4.84,0-7.26a7.93,7.93,0,0,0,2,4,7.36,7.36,0,0,0,1.33,1.09V69.91a7.65,7.65,0,0,0,2.68,4.74,5.3,5.3,0,0,0,.71.45V69.86a7.08,7.08,0,0,0,2.55,4.81c.22.13.44.26.67.37,0,.75,0,1.48,0,2.23l-1.32,1,0-1H240.8v4.35l-1.21,1.43-3.07,0,0,4.36L235.26,89h-.62l0-.26-2.35,0v4.32l-2,2.24v-.72h-2.09V85.31l-5.38,6.27-7-7.42,9.62-12.09c.15-.16.85-1.32,1-1.45s.37-.5.58-.58l-.48,1"/><path class="cls-4" d="M249.71,106.4a6.44,6.44,0,0,0,1.82,3.2,7.4,7.4,0,0,0,1.51,1.12l.07,4.56a3.09,3.09,0,0,0,.2.78,3.44,3.44,0,0,0,.34.66,9.05,9.05,0,0,0,.83.93,12.09,12.09,0,0,0,1,.88c.26.15.53.31.84.46a13.72,13.72,0,0,0,1.51.65,6.37,6.37,0,0,0,1.75.24H224.92V116.7a3.48,3.48,0,0,1,1.81-1.48l1.5,0v-8.92a5.2,5.2,0,0,0,1.86,2.27,6.43,6.43,0,0,0,1.75.84l.1-4.12a5,5,0,0,0,1.71,3.52,6.24,6.24,0,0,0,2,1.18v-3.53a6.24,6.24,0,0,0,1.75,3.11,7.16,7.16,0,0,0,1.58,1.18l.06,5.51a4,4,0,0,1,1.51-1l1.81-.08v-9.92a8.32,8.32,0,0,0,3.57,4.22v-4.25l.19,0a5.58,5.58,0,0,0,2.11,3.78,6.36,6.36,0,0,0,1.5.88Z"/><path class="cls-4" d="M226.3,87.61l-9.65-12.82a5.15,5.15,0,0,0-1.87-1.24,4.76,4.76,0,0,0-2.89-.15A5.17,5.17,0,0,0,209,75.94a6.64,6.64,0,0,0-.25,3.48,3.62,3.62,0,0,0,.53,1.39l1.26,1.57-.06,6.47a5,5,0,0,0,2.21-2.46V91A6.67,6.67,0,0,0,215,88.5l2.86,3.57a4,4,0,0,0,4.81,0Z"/><path class="cls-9" d="M238.13,61.64h-1.6a1.67,1.67,0,0,1-.53-.14,1.79,1.79,0,0,1-.54-.37,2,2,0,0,1-.36-.69,2.22,2.22,0,0,1-.09-.81,2,2,0,0,1,.12-.69,1.8,1.8,0,0,1,.26-.56,1.92,1.92,0,0,1,.66-.46,2.39,2.39,0,0,1,.89-.26,2.43,2.43,0,0,1,.63.16,2.47,2.47,0,0,1,1.05.63,5,5,0,0,1,.4.4,6,6,0,0,1,.44.56Z"/><path class="cls-9" d="M241,61.68h1.6a1.66,1.66,0,0,0,1.07-.51,2.26,2.26,0,0,0,.47-.94,2.46,2.46,0,0,0,.07-.6,1.83,1.83,0,0,0,0-.66,2.1,2.1,0,0,0-.42-.57,1.81,1.81,0,0,0-.42-.41,1.88,1.88,0,0,0-1.17-.27,2.46,2.46,0,0,0-.72.11,3.56,3.56,0,0,0-1,.6,2.93,2.93,0,0,0-.42.37,6.9,6.9,0,0,0-.47.6c.45.74,1,1.53,1.44,2.28"/><path class="cls-8" d="M234.64,64.68h10V63.54a2.49,2.49,0,0,0-.51-1.12,2.79,2.79,0,0,0-1.21-.87l-6.34-.07a2.5,2.5,0,0,0-1.89,2.12Z"/><path class="cls-4" d="M251,55c-.14.18-.53.29-1.55,0l0,5.17a6.89,6.89,0,0,1,2.35,8.32l-.39.07A7.26,7.26,0,0,0,250.2,67a6.78,6.78,0,0,0-.76-.66l0,5.37a9.5,9.5,0,0,1-1.9,3.71,10.43,10.43,0,0,1-2.82,2.29h-.1V63.53a2.73,2.73,0,0,0-1-1.63,2.83,2.83,0,0,0-.69-.36,2.2,2.2,0,0,0,1.21-1.15,1.83,1.83,0,0,0,.12-.46,2,2,0,0,0-.1-1,1.78,1.78,0,0,0-.39-.55,2.12,2.12,0,0,0-.44-.35,2.87,2.87,0,0,0-1.29-.23,3.25,3.25,0,0,0-1.21.47,4.29,4.29,0,0,0-.67.61l-.25.26c-.1.11-.17.21-.22.27l-.15.06a6,6,0,0,0-.4-.46,4.27,4.27,0,0,0-.57-.63,2.59,2.59,0,0,0-1.4-.62,2,2,0,0,0-1.47.48,2,2,0,0,0-.5.81,2.21,2.21,0,0,0,0,1.56,1.65,1.65,0,0,0,.29.45,1.78,1.78,0,0,0,1.08.47,1.18,1.18,0,0,0-.49.16,4.34,4.34,0,0,0-.94.77,2.13,2.13,0,0,0-.46,1.18l.1,14.09a4.12,4.12,0,0,1-.78-.23,6.85,6.85,0,0,1-2.36-2.07c-.14-.16-.37-.42-.54-.65A9.76,9.76,0,0,1,229.52,70v-2.9l-.37,0a3.63,3.63,0,0,1-.49.83,3.92,3.92,0,0,1-.79.73,8.47,8.47,0,0,1-.37-2.91,7.9,7.9,0,0,1,.22-1.6A8.18,8.18,0,0,1,229.31,61l.19-6.1h-2a6.9,6.9,0,0,1,5-4.26c-.15-.19-.33-.4-.52-.61l-.42-.43a6.78,6.78,0,0,1,5.14,1,6.14,6.14,0,0,1,2.57,4c.09-.32,1.35-4.09,4.93-5a6.38,6.38,0,0,1,3,0,3.27,3.27,0,0,0-.37.28,4,4,0,0,0-.81,1,6.08,6.08,0,0,1,3.32,1.38c1,.87,1.91,2.31,1.52,2.8"/><polygon class="cls-10" points="239.53 59.3 238.07 61.52 241.17 61.54 239.53 59.3"/><path class="cls-5" d="M229.79,51.85c-.31-.17.63-4.15,3.88-6.92a12.7,12.7,0,0,1,7.08-2.87,13.33,13.33,0,0,1,6.66,1,12.25,12.25,0,0,1,4.31,3.28,10.44,10.44,0,0,1,2.3,3.88,4.34,4.34,0,0,1,.41,2.33c-.4,1.75-2.59,3-3.31,2.56-.31-.18-.1-.52-.5-1.35a4.82,4.82,0,0,0-1.44-1.67,4,4,0,0,0-1.74-1c-.64-.16-1.1,0-1.18-.24s1-.95.83-1.28c0,0-.09-.14-.91-.16a5.81,5.81,0,0,0-3.07.58,6.67,6.67,0,0,0-2,1.44c-1.33,1.42-1.46,3.15-1.73,3.1-.1,0-.13-.27-.15-.42a5.28,5.28,0,0,0-1.36-2.57,5.43,5.43,0,0,0-2.73-1.87,12,12,0,0,0-1.79-.2c-1.41-.11-1.64,0-1.67.09s.28.46.53.67.42.27.41.36-1,.13-1.92.63c-.64.33-.8.66-.9.61"/><path class="cls-11" d="M234.64,64.68h10V75.59a5.78,5.78,0,0,1-3.22-4.87v4.92a7.41,7.41,0,0,1-1.73-1.42A7.13,7.13,0,0,1,238,70.77v4.87a7.32,7.32,0,0,1-1.75-1.48,6.94,6.94,0,0,1-1.54-3.29c0-2.06,0-4.13-.05-6.19"/></g><g class="cls-51"><path class="cls-52" d="M219.86,79.06l6.44,8.55,1.93-2.3V98.49h20.84V82.82h10.64l0-12.16,0-.15c-.24-1-1.55-1.27-2-1.36a14.15,14.15,0,0,0-1.61-.2,11.79,11.79,0,0,0-1.69,0,18.82,18.82,0,0,1-4.15,5.93,15.83,15.83,0,0,1-4.2,2.9,25.2,25.2,0,0,1-7.36.78c-.57,0-1.13-.07-1.67-.13a4.41,4.41,0,0,1-1.21-.41,4.73,4.73,0,0,1-1.09-.79l0,.44A8.08,8.08,0,0,1,233,76.63,10.12,10.12,0,0,1,230.15,73a10.37,10.37,0,0,1-.48-1.86,11.4,11.4,0,0,1-.15-2L227,70Z"/><path class="cls-52" d="M245.19,89.31c0,3.94-2.76,7.13-6.17,7.13s-6.16-3.19-6.16-7.13,2.76-7.13,6.16-7.13,6.17,3.19,6.17,7.13"/><path class="cls-53" d="M245.19,89.31c0,3.94-2.76,7.13-6.17,7.13s-6.16-3.19-6.16-7.13,2.76-7.13,6.16-7.13S245.19,85.37,245.19,89.31Z"/><line class="cls-53" x1="237.1" y1="86.18" x2="237.08" y2="89.14"/><path class="cls-53" d="M235.87,91.72a3.59,3.59,0,0,0,3.28,2.09,3.91,3.91,0,0,0,3-2.09"/><line class="cls-53" x1="240.91" y1="86.1" x2="240.89" y2="89.06"/></g></g></g></g></svg>